# 3ds Max Wavefront OBJ Exporter v0.97b - (c)2007 guruware
# File Created: 15.02.2017 02:43:24

mtllib barracks.mtl

#
# object Box01_FACES06
#

v  -103.2615 59.3100 106.5389
v  108.0385 59.3100 106.5820
v  2.3655 99.2400 106.5604
v  -39.0995 0.0000 -99.3480
v  -99.3195 0.0000 -99.3602
v  -99.3195 60.0400 -99.3602
v  41.2205 60.0400 -99.3316
v  100.6805 0.0000 -99.3195
v  40.9705 50.3900 -99.3317
v  100.6805 60.0400 -99.3195
v  -39.0495 50.3900 -99.3480
v  -39.0995 60.0400 -99.3480
v  41.2205 0.0000 -99.3316
v  -99.3602 0.0000 100.4997
v  100.6397 0.0000 100.6805
v  -108.5624 -10.8300 111.4379
v  109.4376 -10.8300 111.4823
v  109.4819 -10.8300 -106.5177
v  -38.9481 -10.8300 -106.5479
v  -108.5181 -10.8300 -106.5621
v  40.6419 -10.8300 -106.5318
v  -38.9995 -10.6600 -99.3480
v  40.7305 -10.6600 -99.3317
v  -123.4402 32.1800 2.2288
v  -123.4601 32.3500 99.8948
v  -94.3001 60.0300 99.9008
v  -94.2802 59.8700 2.2348
v  -123.2402 -9.9640 2.2289
v  -123.2601 -9.7970 99.8949
v  -94.3001 -9.7970 99.9008
v  -94.2802 -9.9640 2.2348
v  -103.2183 59.3100 -105.2610
v  108.0817 59.3100 -105.2180
v  2.4087 99.2400 -105.2395
v  -99.3402 60.0400 2.3467
v  -99.3402 0.0000 2.3467
v  100.6397 60.0400 100.6805
v  -99.3603 60.0400 100.6397
v  -74.0177 -11.0500 -108.4551
v  -74.0195 -11.0500 -99.4551
v  -74.0195 15.5700 -99.4551
v  -74.0177 15.4900 -108.4551
v  -74.0196 27.1900 -99.1851
v  -59.0195 -11.0500 -99.4520
v  -59.0177 -11.0500 -108.4520
v  -59.0177 15.4900 -108.4520
v  -59.0195 15.5700 -99.4520
v  -59.0196 27.1900 -99.1820
v  -142.1418 -10.3900 9.7220
v  -142.1449 -10.3900 24.9510
v  -142.1449 15.6900 24.9510
v  -142.1418 15.6900 9.7220
v  -123.2449 25.2500 24.9549
v  -123.2418 25.2500 9.7259
v  -129.2449 -10.3900 24.9537
v  -129.2449 6.4730 24.9537
v  -123.2449 8.8510 24.9549
v  -129.2417 -10.3900 9.7247
v  -129.2418 6.4730 9.7247
v  -123.2418 8.8510 9.7259
v  -142.1556 -10.3900 77.6310
v  -142.1587 -10.3900 92.8510
v  -142.1587 15.6900 92.8510
v  -142.1556 15.6900 77.6310
v  -123.2587 25.2500 92.8549
v  -123.2556 25.2500 77.6349
v  -129.2587 -10.3900 92.8537
v  -129.2587 6.4730 92.8537
v  -123.2587 8.8510 92.8549
v  -129.2556 -10.3900 77.6337
v  -129.2556 6.4730 77.6337
v  -123.2556 8.8510 77.6349
v  -142.1487 -10.3900 43.8710
v  -142.1518 -10.3900 59.1010
v  -142.1518 15.6900 59.1010
v  -142.1487 15.6900 43.8710
v  -123.2518 25.2500 59.1049
v  -123.2487 25.2500 43.8749
v  -129.2518 -10.3900 59.1037
v  -129.2518 6.4730 59.1037
v  -123.2518 8.8510 59.1049
v  -129.2487 -10.3900 43.8737
v  -129.2487 6.4730 43.8737
v  -123.2487 8.8510 43.8749
v  74.8605 -11.0500 -99.4248
v  74.8623 -11.0500 -108.4248
v  74.8605 15.5700 -99.4248
v  74.8623 15.4900 -108.4248
v  74.8604 27.1900 -99.1548
v  59.8623 -11.0500 -108.4278
v  59.8605 -11.0500 -99.4278
v  59.8623 15.4900 -108.4278
v  59.8605 15.5700 -99.4278
v  59.8604 27.1900 -99.1578
v  110.4374 62.2300 112.1824
v  110.4404 62.2300 97.3824
v  2.1145 102.4000 96.9904
v  2.1115 102.4000 111.7604
v  106.9374 58.9900 112.1817
v  106.9404 58.9900 97.3817
v  2.0895 97.1100 96.9904
v  2.0865 97.1100 111.7604
v  -105.3594 62.2300 96.6085
v  -105.3625 62.2300 111.4385
v  -101.9594 58.9900 96.6092
v  -101.9625 58.9900 111.4392
v  110.4799 62.2300 -96.5075
v  110.4829 62.2300 -111.3175
v  2.1570 102.4000 -111.6396
v  2.1540 102.4000 -96.8996
v  106.9799 58.9900 -96.5083
v  106.9829 58.9900 -111.3183
v  2.1320 97.1100 -111.6396
v  2.1290 97.1100 -96.8996
v  -105.3169 62.2300 -112.0615
v  -105.3200 62.2300 -97.2815
v  -101.9169 58.9900 -112.0608
v  -101.9200 58.9900 -97.2808
# 118 vertices

vn -0.8286 -0.1514 0.5389
vn 0.8284 -0.1513 0.5393
vn -0.0002 0.7721 0.6355
vn 0.1911 0.2868 -0.9387
vn -0.5062 0.6646 -0.5496
vn -0.7070 0.0000 -0.7073
vn 0.0002 0.0000 -1.0000
vn 0.2883 0.7365 -0.6119
vn 0.7073 0.0000 -0.7070
vn -0.1879 0.2960 -0.9365
vn -0.3058 0.8119 0.4973
vn 0.5396 0.7988 0.2659
vn -0.4191 0.7963 0.4362
vn 0.4242 0.7886 0.4452
vn 0.4992 0.7231 -0.4775
vn 0.5247 0.4764 -0.7055
vn -0.4947 0.7318 -0.4687
vn -0.5281 0.4895 -0.6939
vn 0.7147 0.0067 -0.6994
vn -0.7148 0.0329 -0.6986
vn -0.7158 0.3051 -0.6281
vn -0.7162 0.3059 0.6273
vn 0.3300 0.7693 0.5471
vn 0.3304 0.7684 -0.5481
vn -0.7055 -0.0033 -0.7087
vn -0.7066 -0.0034 0.7076
vn 0.7073 -0.0000 0.7069
vn 0.7069 0.0000 -0.7073
vn -0.8284 -0.1514 -0.5393
vn 0.8286 -0.1513 -0.5389
vn 0.0001 0.7721 -0.6355
vn -1.0000 0.0000 -0.0002
vn 1.0000 0.0000 0.0002
vn 0.7068 -0.0003 0.7075
vn -0.0009 -0.0000 1.0000
vn -0.0002 -0.0023 1.0000
vn -0.6399 0.2526 -0.7257
vn -0.3806 0.5742 -0.7248
vn 0.6402 0.2526 -0.7255
vn 0.3809 0.5742 -0.7247
vn -0.7073 -0.0000 0.7070
vn -0.6777 0.4166 0.6059
vn -0.6775 0.4166 -0.6062
vn -0.3696 0.7304 0.5744
vn -0.3693 0.7304 -0.5746
vn 0.7070 0.0000 0.7073
vn 0.4251 -0.2889 0.8578
vn 0.2311 -0.5835 0.7785
vn 0.4255 -0.2889 -0.8576
vn 0.2314 -0.5835 -0.7784
vn -0.7070 -0.0000 -0.7073
vn -1.0000 -0.0000 -0.0002
vn 0.8141 0.1619 0.5578
vn 0.8156 0.1615 -0.5556
vn 0.0007 0.7714 -0.6364
vn -0.0027 0.7715 0.6363
vn 0.4122 -0.4454 0.7948
vn 0.4151 -0.4482 -0.7917
vn 0.0036 0.0000 -1.0000
vn -0.0035 0.0000 1.0000
vn -0.8127 0.1666 -0.5583
vn -0.8141 0.1663 0.5564
vn -0.4209 -0.4419 -0.7922
vn -0.4235 -0.4442 0.7896
vn 0.8141 0.1619 0.5577
vn 0.8155 0.1615 -0.5557
vn 0.0007 0.7715 -0.6363
vn -0.0027 0.7714 0.6364
vn 0.4123 -0.4455 0.7947
vn 0.4148 -0.4479 -0.7920
vn 0.0035 0.0000 -1.0000
vn -0.0036 0.0000 1.0000
vn -0.8127 0.1667 -0.5584
vn -0.8142 0.1662 0.5562
vn -0.4208 -0.4417 -0.7924
vn -0.4237 -0.4444 0.7893
# 76 vertex normals

vt -0.7198 0.0227 0.0000
vt 1.7350 0.0227 0.0000
vt 0.5000 0.8297 0.0000
vt 0.9118 0.1532 0.0000
vt 1.5390 0.1532 0.0000
vt 1.5390 0.9995 0.0000
vt 0.0752 0.9995 0.0000
vt -0.5441 0.1532 0.0000
vt 0.0752 0.8625 0.0000
vt -0.5441 0.9995 0.0000
vt 0.9118 0.8625 0.0000
vt 0.9118 0.9995 0.0000
vt 0.0752 0.1532 0.0000
vt -0.5141 -0.5389 0.0000
vt 1.4780 -0.5389 0.0000
vt -0.5141 1.5440 0.0000
vt 1.4780 1.5440 0.0000
vt 1.5440 0.1532 0.0000
vt -0.5389 0.1532 0.0000
vt -0.6352 0.0005 0.0000
vt 1.6350 0.0005 0.0000
vt 1.5140 0.1532 0.0000
vt -0.4783 0.1532 0.0000
vt -0.5859 0.0005 0.0000
vt 1.5860 0.0005 0.0000
vt 0.9102 0.0005 0.0000
vt 0.0813 0.0005 0.0000
vt 1.2760 0.1684 0.0000
vt 0.2496 0.1684 0.0000
vt 0.2126 -0.0042 0.0000
vt 1.3340 -0.0042 0.0000
vt 0.1715 0.3160 0.0000
vt 0.8413 0.3160 0.0000
vt 0.8413 0.5879 0.0000
vt 0.1715 0.5879 0.0000
vt -0.2326 -0.0107 0.0000
vt 1.2170 -0.0082 0.0000
vt 1.2170 0.6186 0.0000
vt -0.2326 0.6161 0.0000
vt 0.1480 -0.0082 0.0000
vt 0.5625 -0.0082 0.0000
vt 0.5625 1.0300 0.0000
vt 0.1452 0.6186 0.0000
vt -0.2167 -0.0082 0.0000
vt 1.2330 -0.0107 0.0000
vt 1.2330 1.0280 0.0000
vt -0.2167 1.0300 0.0000
vt 0.4375 -0.0107 0.0000
vt 0.8520 -0.0107 0.0000
vt 0.8548 0.6161 0.0000
vt 0.4375 1.0280 0.0000
vt 0.8430 0.6639 0.0000
vt 0.8430 -0.0139 0.0000
vt 0.0164 -0.0139 0.0000
vt 0.0164 0.6639 0.0000
vt 0.1834 0.0017 0.0000
vt 0.8235 0.0055 0.0000
vt 0.8235 0.5853 0.0000
vt 0.1873 0.5853 0.0000
vt 1.1280 -0.0307 0.0000
vt -0.1036 -0.0474 0.0000
vt 0.5108 0.4630 0.0000
vt 0.0838 0.0153 0.0000
vt 0.9163 0.0153 0.0000
vt 0.9163 0.9608 0.0000
vt 0.0838 0.9608 0.0000
vt 0.9717 1.0070 0.0000
vt -0.0028 1.0070 0.0000
vt -0.0028 0.1660 0.0000
vt 0.9717 0.1660 0.0000
vt 1.0470 0.2653 0.0000
vt -1.0020 0.2653 0.0000
vt -1.0020 1.0220 0.0000
vt 1.0470 1.0220 0.0000
vt 2.0170 0.2653 0.0000
vt -0.0322 0.2653 0.0000
vt -0.0322 1.0220 0.0000
vt 2.0170 1.0220 0.0000
vt 0.6033 0.6043 0.0000
vt 0.8674 0.6043 0.0000
vt 0.8674 1.0318 0.0000
vt 0.6033 1.0305 0.0000
vt 0.8767 1.2184 0.0000
vt 0.6126 0.6043 0.0000
vt 0.8767 0.6043 0.0000
vt 0.8767 1.0305 0.0000
vt 0.6126 1.0318 0.0000
vt 0.6033 1.2184 0.0000
vt 0.5662 0.6043 0.0000
vt 0.9138 0.6043 0.0000
vt 0.9138 1.0305 0.0000
vt 0.5662 1.0305 0.0000
vt 0.6033 1.1393 0.0000
vt 0.6033 0.8207 0.0000
vt 0.8767 0.8207 0.0000
vt 0.8767 1.1393 0.0000
vt 0.6274 0.4600 0.0000
vt 0.8095 0.4600 0.0000
vt 0.8095 0.8644 0.0000
vt 0.6274 0.8644 0.0000
vt 0.8095 1.0808 0.0000
vt 0.6274 1.0808 0.0000
vt 0.6139 0.4600 0.0000
vt 0.7750 0.4600 0.0000
vt 0.7750 0.7214 0.0000
vt 0.6139 0.8644 0.0000
vt 0.8499 0.7584 0.0000
vt 0.8499 1.0126 0.0000
vt 0.6705 0.4600 0.0000
vt 0.8526 0.4600 0.0000
vt 0.8526 0.7214 0.0000
vt 0.6705 0.7214 0.0000
vt 0.6705 1.0121 0.0000
vt 0.8526 1.0121 0.0000
vt 0.8526 1.0808 0.0000
vt 0.6705 1.0808 0.0000
vt 0.7050 0.4600 0.0000
vt 0.8661 0.4600 0.0000
vt 0.8661 0.8644 0.0000
vt 0.7050 0.7214 0.0000
vt 0.6301 1.0126 0.0000
vt 0.6301 0.7584 0.0000
vt 0.0699 0.0658 0.0000
vt 0.8897 0.0658 0.0000
vt 0.9099 0.9995 0.0000
vt 0.0901 0.9995 0.0000
vt 0.0699 -0.0096 0.0000
vt 0.8897 -0.0096 0.0000
vt -0.0096 1.2720 0.0000
vt 0.8772 0.4969 0.0000
vt 0.9995 0.4971 0.0000
vt 0.0658 1.2980 0.0000
vt 0.1228 0.4969 0.0000
vt 1.0100 1.2720 0.0000
vt 0.9342 1.2980 0.0000
vt 0.0005 0.4971 0.0000
vt 1.0100 -0.2721 0.0000
vt 0.9342 -0.2976 0.0000
vt -0.0096 -0.2721 0.0000
vt 0.0658 -0.2976 0.0000
# 140 texture coords

g Box01_FACES06
usemtl VMtl03
s 1
f 1/1/1 2/2/2 3/3/3 
usemtl VMtl01
f 4/4/4 5/5/5 6/6/6 
f 7/7/7 8/8/8 9/9/7 
f 8/8/8 7/7/7 10/10/9 
f 11/11/7 12/12/7 9/9/7 
f 6/6/6 11/11/7 4/4/4 
f 9/9/7 8/8/8 13/13/10 
f 9/9/7 12/12/7 7/7/7 
f 6/6/6 12/12/7 11/11/7 
f 5/14/5 14/15/11 8/16/8 
f 15/17/12 8/16/8 14/15/11 
f 15/18/12 14/19/11 16/20/13 
f 16/20/13 17/21/14 15/18/12 
f 8/22/8 15/23/12 17/24/14 
f 17/24/14 18/25/15 8/22/8 
f 5/5/5 4/4/4 19/26/16 
f 19/26/16 20/21/17 5/5/5 
f 13/13/10 8/8/8 18/20/15 
f 18/20/15 21/27/18 13/13/10 
f 19/5/16 4/5/4 22/5/19 
f 23/5/20 13/5/10 21/5/18 
f 14/28/11 5/29/5 20/30/17 
f 20/30/17 16/31/13 14/28/11 
f 24/32/21 25/33/22 26/34/23 
f 26/34/23 27/35/24 24/32/21 
f 28/36/25 29/37/26 25/38/22 
f 25/38/22 24/39/21 28/36/25 
f 29/40/26 30/41/27 26/42/23 
f 26/42/23 25/43/22 29/40/26 
f 30/44/27 31/45/28 27/46/24 
f 27/46/24 26/47/23 30/44/27 
f 31/48/28 28/49/25 24/50/21 
f 24/50/21 27/51/24 31/48/28 
f 32/52/29 33/53/30 2/54/2 
f 2/54/2 1/55/1 32/52/29 
f 2/56/2 33/57/30 34/58/31 
f 34/58/31 3/59/3 2/56/2 
f 32/57/29 1/56/1 34/58/31 
f 3/59/3 34/58/31 1/56/1 
f 33/60/30 32/61/29 34/62/31 
usemtl VMtl02
f 23/63/20 22/64/19 11/65/7 
f 23/63/20 11/65/7 9/66/7 
usemtl VMtl03
f 35/67/32 6/68/6 5/69/5 
f 5/69/5 36/70/32 35/67/32 
f 15/71/33 8/72/33 10/73/9 
f 10/73/9 37/74/34 15/71/12 
f 14/75/35 15/76/35 37/77/34 
f 37/77/34 38/78/36 14/75/11 
usemtl VMtl04
f 39/79/6 40/80/32 41/81/32 
f 41/81/32 42/82/37 39/79/6 
f 42/82/37 41/81/32 43/83/38 
f 44/84/33 45/85/9 46/86/39 
f 46/86/39 47/87/33 44/84/33 
f 47/87/33 46/86/39 48/88/40 
f 45/89/9 39/90/6 42/91/37 
f 42/91/37 46/92/39 45/89/9 
f 46/93/39 42/94/37 43/95/38 
f 43/95/38 48/96/40 46/93/39 
f 49/97/6 50/98/41 51/99/42 
f 51/99/42 52/100/43 49/97/6 
f 52/100/43 51/99/42 53/101/44 
f 53/101/44 54/102/45 52/100/43 
f 50/103/41 55/104/46 56/105/47 
f 56/105/47 51/106/42 50/103/41 
f 51/106/42 56/105/47 57/107/48 
f 57/107/48 53/108/44 51/106/42 
f 55/109/46 58/110/9 59/111/49 
f 59/111/49 56/112/47 55/109/46 
f 56/113/47 59/114/49 60/115/50 
f 60/115/50 57/116/48 56/113/47 
f 58/117/9 49/118/6 52/119/43 
f 52/119/43 59/120/49 58/117/9 
f 59/120/49 52/119/43 54/121/45 
f 54/121/45 60/122/50 59/120/49 
f 61/97/6 62/98/41 63/99/42 
f 63/99/42 64/100/43 61/97/6 
f 64/100/43 63/99/42 65/101/44 
f 65/101/44 66/102/45 64/100/43 
f 62/103/41 67/104/46 68/105/47 
f 68/105/47 63/106/42 62/103/41 
f 63/106/42 68/105/47 69/107/48 
f 69/107/48 65/108/44 63/106/42 
f 67/109/46 70/110/9 71/111/49 
f 71/111/49 68/112/47 67/109/46 
f 68/113/47 71/114/49 72/115/50 
f 72/115/50 69/116/48 68/113/47 
f 70/117/9 61/118/6 64/119/43 
f 64/119/43 71/120/49 70/117/9 
f 71/120/49 64/119/43 66/121/45 
f 66/121/45 72/122/50 71/120/49 
f 73/97/6 74/98/41 75/99/42 
f 75/99/42 76/100/43 73/97/6 
f 76/100/43 75/99/42 77/101/44 
f 77/101/44 78/102/45 76/100/43 
f 74/103/41 79/104/46 80/105/47 
f 80/105/47 75/106/42 74/103/41 
f 75/106/42 80/105/47 81/107/48 
f 81/107/48 77/108/44 75/106/42 
f 79/109/46 82/110/9 83/111/49 
f 83/111/49 80/112/47 79/109/46 
f 80/113/47 83/114/49 84/115/50 
f 84/115/50 81/116/48 80/113/47 
f 82/117/9 73/118/6 76/119/43 
f 76/119/43 83/120/49 82/117/9 
f 83/120/49 76/119/43 78/121/45 
f 78/121/45 84/122/50 83/120/49 
f 85/80/33 86/79/9 87/81/33 
f 88/82/39 87/81/33 86/79/9 
f 87/81/33 88/82/39 89/83/40 
f 90/85/51 91/84/52 92/86/37 
f 93/87/52 92/86/37 91/84/52 
f 92/86/37 93/87/52 94/88/38 
f 86/90/9 90/89/51 88/91/39 
f 92/92/37 88/91/39 90/89/51 
f 88/94/39 92/93/37 89/95/40 
f 94/96/38 89/95/40 92/93/37 
usemtl VMtl05
f 95/123/53 96/124/54 97/125/55 
f 97/125/55 98/126/56 95/123/53 
f 99/127/57 100/128/58 96/124/54 
f 96/124/54 95/123/53 99/127/57 
f 100/129/58 101/130/59 97/131/55 
f 97/131/55 96/132/54 100/129/58 
f 102/133/60 99/134/57 95/135/53 
f 95/135/53 98/136/56 102/133/60 
f 103/123/61 104/124/62 98/125/56 
f 98/125/56 97/126/55 103/123/61 
f 105/127/63 106/128/64 104/124/62 
f 104/124/62 103/123/61 105/127/63 
f 106/137/64 102/133/60 98/136/56 
f 98/136/56 104/138/62 106/137/64 
f 101/130/59 105/139/63 103/140/61 
f 103/140/61 97/131/55 101/130/59 
f 107/123/65 108/124/66 109/125/67 
f 109/125/67 110/126/68 107/123/65 
f 111/127/69 112/128/70 108/124/66 
f 108/124/66 107/123/65 111/127/69 
f 112/129/70 113/130/71 109/131/67 
f 109/131/67 108/132/66 112/129/70 
f 114/133/72 111/134/69 107/135/65 
f 107/135/65 110/136/68 114/133/72 
f 115/123/73 116/124/74 110/125/68 
f 110/125/68 109/126/67 115/123/73 
f 117/127/75 118/128/76 116/124/74 
f 116/124/74 115/123/73 117/127/75 
f 118/137/76 114/133/72 110/136/68 
f 110/136/68 116/138/74 118/137/76 
f 113/130/71 117/139/75 115/140/73 
f 115/140/73 109/131/67 113/130/71 
# 0 polygons - 148 triangles

