# Blender v2.78 (sub 0) OBJ File: 'basicTrack.blend'
# www.blender.org
mtllib basicTrack.mtl
v 3.500000 -0.100001 2.000000
v 2.500000 -0.100000 1.500000
v 3.500000 -0.100001 -2.000000
v 2.500000 -0.100000 -1.500000
v -2.500000 -0.100000 1.500000
v -3.500000 -0.099999 2.000000
v -2.500000 -0.100000 -1.500000
v -3.500000 -0.099999 -2.000000
v -2.000000 -0.100000 3.500000
v -1.500000 -0.100000 2.500000
v 2.000000 -0.100000 3.500000
v 1.500000 -0.100000 2.500000
v -1.500000 -0.100000 -2.500000
v -2.000000 -0.100000 -3.500000
v 1.500000 -0.100000 -2.500000
v 2.000000 -0.100000 -3.500000
v 3.500000 -0.000001 2.000000
v 2.500000 -0.000000 1.500000
v 3.500000 -0.000001 -2.000000
v 2.500000 -0.000000 -1.500000
v -2.500000 0.000000 1.500000
v -3.500000 0.000001 2.000000
v -2.500000 0.000000 -1.500000
v -3.500000 0.000001 -2.000000
v -2.000000 0.000000 3.500000
v -1.500000 0.000000 2.500000
v 2.000000 -0.000000 3.500000
v 1.500000 -0.000000 2.500000
v -1.500000 0.000000 -2.500000
v -2.000000 0.000000 -3.500000
v 1.500000 -0.000000 -2.500000
v 2.000000 -0.000000 -3.500000
v 2.080000 -0.000000 -3.640000
v 2.375000 -0.000000 1.425000
v -2.080000 0.000000 -3.640000
v 2.375000 -0.000000 -1.425000
v -2.375000 0.000000 1.425000
v 2.080000 -0.000000 3.640000
v -2.375000 0.000000 -1.425000
v -2.080000 0.000000 3.640000
v -3.640000 0.000001 -2.080000
v -1.425000 0.000000 2.375000
v -3.640000 0.000001 2.080000
v 1.425000 -0.000000 2.375000
v -1.425000 0.000000 -2.375000
v 3.640000 -0.000001 -2.080000
v 1.425000 -0.000000 -2.375000
v 3.640000 -0.000001 2.080000
v 2.080000 -0.100000 -3.640000
v 2.375000 -0.100000 1.425000
v -2.080000 -0.100000 -3.640000
v 2.375000 -0.100000 -1.425000
v -2.375000 -0.100000 1.425000
v 2.080000 -0.100000 3.640000
v -2.375000 -0.100000 -1.425000
v -2.080000 -0.100000 3.640000
v -3.640000 -0.099999 -2.080000
v -1.425000 -0.100000 2.375000
v -3.640000 -0.099999 2.080000
v 1.425000 -0.100000 2.375000
v -1.425000 -0.100000 -2.375000
v 3.640000 -0.100001 -2.080000
v 1.425000 -0.100000 -2.375000
v 3.640000 -0.100001 2.080000
vt 0.4179 0.3483
vt 0.4875 0.1046
vt 0.4875 0.3831
vt 0.0002 0.3831
vt 0.0698 0.1394
vt 0.0698 0.3483
vt 0.1394 0.4179
vt 0.3831 0.4875
vt 0.1046 0.4875
vt 0.1046 0.0002
vt 0.3483 0.0698
vt 0.1394 0.0698
vt 0.4179 0.1394
vt 0.0002 0.1046
vt 0.9569 0.0858
vt 0.9054 0.0034
vt 0.9114 0.0002
vt 0.7033 0.1446
vt 0.7649 0.4167
vt 0.7583 0.4171
vt 0.6409 0.0119
vt 0.7096 0.1423
vt 0.7428 0.5613
vt 0.6420 0.8245
vt 0.6355 0.8219
vt 0.7496 0.5631
vt 0.5672 0.6912
vt 0.5057 0.4191
vt 0.5123 0.4187
vt 0.5278 0.2745
vt 0.6286 0.0112
vt 0.6351 0.0139
vt 0.9901 0.3845
vt 0.9925 0.2900
vt 0.9998 0.2895
vt 0.8260 0.4938
vt 0.8775 0.5763
vt 0.8714 0.5795
vt 0.7831 0.2902
vt 0.8325 0.4915
vt 0.6351 0.8210
vt 0.5610 0.6935
vt 0.8719 0.0002
vt 0.8000 0.1969
vt 0.7928 0.1952
vt 0.5210 0.2727
vt 0.9504 0.0882
vt 0.7904 0.2896
vt 0.9110 0.5795
vt 0.9829 0.3828
vt 0.7998 0.2910
vt 0.5112 0.2716
vt 0.8970 0.0110
vt 0.8793 0.0032
vt 0.8089 0.1976
vt 0.7754 0.4180
vt 0.9036 0.5765
vt 0.9740 0.3820
vt 0.7594 0.5642
vt 0.6482 0.8326
vt 0.6297 0.8239
vt 0.5511 0.6985
vt 0.9831 0.2887
vt 0.8859 0.5687
vt 0.8413 0.4866
vt 0.4952 0.4178
vt 0.9416 0.0931
vt 0.7195 0.1372
vt 0.6224 0.0032
vt 0.8475 0.4843
vt 0.9353 0.0954
vt 0.6204 0.8324
vt 0.5445 0.7009
vt 0.7666 0.5659
vt 0.8065 0.2906
vt 0.6555 0.8356
vt 0.6562 0.0002
vt 0.7261 0.1349
vt 0.8916 0.0139
vt 0.6150 0.0002
vt 0.8847 0.0105
vt 0.8157 0.1994
vt 0.7827 0.4176
vt 0.8981 0.5691
vt 0.9672 0.3803
vt 0.4879 0.4182
vt 0.5040 0.2699
vt 0.9764 0.2891
vt 0.8913 0.5657
vt 0.3483 0.4179
vt 0.3831 0.0002
vt 0.6355 0.0148
vt 0.6501 0.0033
vt 0.6143 0.8356
vt 0.8913 0.0132
vt 0.8916 0.5665
vn -0.0000 -1.0000 0.0000
vn 0.7071 0.0000 -0.7071
vn -1.0000 0.0000 0.0000
vn -0.7071 0.0000 0.7071
vn 0.0000 0.0000 -1.0000
vn -0.7071 0.0000 -0.7071
vn 1.0000 0.0000 0.0000
vn 0.0000 0.0000 1.0000
vn 0.7071 0.0000 0.7071
usemtl road
s off
f 2/1/1 3/2/1 1/3/1
f 6/4/1 7/5/1 5/6/1
f 10/7/1 11/8/1 9/9/1
f 14/10/1 15/11/1 13/12/1
f 15/11/1 3/2/1 4/13/1
f 11/8/1 2/1/1 1/3/1
f 10/7/1 6/4/1 5/6/1
f 14/10/1 7/5/1 8/14/1
f 5/15/2 26/16/2 10/17/2
f 6/18/3 24/19/3 8/20/3
f 6/18/4 25/21/4 22/22/4
f 14/23/5 32/24/5 16/25/5
f 8/20/6 30/26/6 14/23/6
f 3/27/7 17/28/7 1/29/7
f 11/30/8 25/31/8 9/32/8
f 13/33/9 23/34/9 7/35/9
f 4/36/4 31/37/4 15/38/4
f 2/39/3 20/40/3 4/36/3
f 16/41/2 19/42/2 3/27/2
f 10/43/5 28/44/5 12/45/5
f 11/30/9 17/28/9 27/46/9
f 7/35/7 21/47/7 5/15/7
f 12/45/6 18/48/6 2/39/6
f 15/49/8 29/50/8 13/33/8
f 28/44/1 34/51/1 18/48/1
f 17/28/1 38/52/1 27/46/1
f 21/47/1 42/53/1 26/16/1
f 26/54/1 44/55/1 28/44/1
f 22/22/1 41/56/1 24/19/1
f 31/57/1 45/58/1 29/50/1
f 24/19/1 35/59/1 30/26/1
f 30/26/1 33/60/1 32/24/1
f 32/61/1 46/62/1 19/42/1
f 23/34/1 45/58/1 39/63/1
f 20/40/1 47/64/1 31/37/1
f 18/48/1 36/65/1 20/40/1
f 19/42/1 48/66/1 17/28/1
f 23/34/1 37/67/1 21/47/1
f 25/21/1 43/68/1 22/22/1
f 27/46/1 40/69/1 25/31/1
f 34/51/7 52/70/7 36/65/7
f 39/63/3 53/71/3 37/67/3
f 33/72/4 62/73/4 46/62/4
f 41/56/9 51/74/9 35/59/9
f 44/55/9 50/75/9 34/51/9
f 35/59/8 49/76/8 33/60/8
f 43/68/2 56/77/2 59/78/2
f 42/53/4 53/71/4 58/79/4
f 38/52/5 56/80/5 40/69/5
f 42/81/8 60/82/8 44/55/8
f 43/68/7 57/83/7 41/56/7
f 47/84/5 61/85/5 45/58/5
f 46/62/3 64/86/3 48/66/3
f 48/66/6 54/87/6 38/52/6
f 45/58/6 55/88/6 39/63/6
f 36/65/2 63/89/2 47/64/2
f 2/1/1 4/13/1 3/2/1
f 6/4/1 8/14/1 7/5/1
f 10/7/1 12/90/1 11/8/1
f 14/10/1 16/91/1 15/11/1
f 15/11/1 16/91/1 3/2/1
f 11/8/1 12/90/1 2/1/1
f 10/7/1 9/9/1 6/4/1
f 14/10/1 13/12/1 7/5/1
f 5/15/2 21/47/2 26/16/2
f 6/18/3 22/22/3 24/19/3
f 6/18/4 9/92/4 25/21/4
f 14/23/5 30/26/5 32/24/5
f 8/20/6 24/19/6 30/26/6
f 3/27/7 19/42/7 17/28/7
f 11/30/8 27/46/8 25/31/8
f 13/33/9 29/50/9 23/34/9
f 4/36/4 20/40/4 31/37/4
f 2/39/3 18/48/3 20/40/3
f 16/41/2 32/61/2 19/42/2
f 10/43/5 26/54/5 28/44/5
f 11/30/9 1/29/9 17/28/9
f 7/35/7 23/34/7 21/47/7
f 12/45/6 28/44/6 18/48/6
f 15/49/8 31/57/8 29/50/8
f 28/44/1 44/55/1 34/51/1
f 17/28/1 48/66/1 38/52/1
f 21/47/1 37/67/1 42/53/1
f 26/54/1 42/81/1 44/55/1
f 22/22/1 43/68/1 41/56/1
f 31/57/1 47/84/1 45/58/1
f 24/19/1 41/56/1 35/59/1
f 30/26/1 35/59/1 33/60/1
f 32/61/1 33/72/1 46/62/1
f 23/34/1 29/50/1 45/58/1
f 20/40/1 36/65/1 47/64/1
f 18/48/1 34/51/1 36/65/1
f 19/42/1 46/62/1 48/66/1
f 23/34/1 39/63/1 37/67/1
f 25/21/1 40/93/1 43/68/1
f 27/46/1 38/52/1 40/69/1
f 34/51/7 50/75/7 52/70/7
f 39/63/3 55/88/3 53/71/3
f 33/72/4 49/94/4 62/73/4
f 41/56/9 57/83/9 51/74/9
f 44/55/9 60/82/9 50/75/9
f 35/59/8 51/74/8 49/76/8
f 43/68/2 40/93/2 56/77/2
f 42/53/4 37/67/4 53/71/4
f 38/52/5 54/87/5 56/80/5
f 42/81/8 58/95/8 60/82/8
f 43/68/7 59/78/7 57/83/7
f 47/84/5 63/96/5 61/85/5
f 46/62/3 62/73/3 64/86/3
f 48/66/6 64/86/6 54/87/6
f 45/58/6 61/85/6 55/88/6
f 36/65/2 52/70/2 63/89/2
