# Blender v2.78 (sub 0) OBJ File: 'racetrackcorner.blend'
# www.blender.org
mtllib corner.mtl
o Cube
v -5.062725 1.959609 5.098503
v -5.000000 -0.000001 5.000051
v -5.000000 1.554902 -5.000051
v -5.000000 -0.000001 -5.000051
v 4.937274 1.959609 5.098503
v 5.000000 -0.000001 5.000051
v 5.000000 1.181658 -5.000051
v 5.000000 -0.000001 -5.000051
v -5.000000 1.554902 -4.172449
v -5.000000 -0.000001 -4.172449
v 5.000000 1.181658 -4.172449
v 5.000000 -0.000001 -4.172449
v -5.062725 1.959609 4.247287
v 5.000000 -0.000001 4.148836
v -5.000000 -0.000001 4.148836
v 5.000000 0.649991 4.148836
v -4.235806 0.649991 -5.000051
v -4.235806 -0.000001 -5.000051
v -4.298532 1.959609 5.098503
v -4.235806 -0.000001 5.000051
v -4.235806 -0.000001 -4.172449
v -4.235806 0.649991 -4.172449
v -4.235806 -0.000001 4.148836
v -4.235806 0.649991 4.148836
v 4.167480 -0.000001 -5.000051
v 4.104753 1.959609 5.098503
v 4.167480 -0.000001 -4.172449
v 4.167480 -0.000001 4.148836
v 4.167480 1.181658 -5.000051
v 4.167480 -0.000001 5.000051
v 4.167480 1.181658 -4.172449
v 4.167480 0.649991 4.148836
v 3.536125 0.400001 -5.000051
v 3.536125 -0.000001 5.000051
v 3.536125 0.400001 -4.172449
v 3.536125 0.649991 4.148836
v 3.536125 -0.000001 -5.000051
v 3.473400 1.959609 5.098503
v 3.536125 -0.000001 -4.172449
v 3.536125 -0.000001 4.148836
v -3.603540 0.400001 -5.000051
v -3.603540 -0.000001 5.000051
v -3.603540 0.400001 -4.172449
v -3.603540 0.649991 4.148836
v -3.603540 -0.000001 -5.000051
v -3.666265 1.959609 5.098503
v -3.603540 -0.000001 -4.172449
v -3.603540 -0.000001 4.148836
v -5.000000 -0.000001 3.455395
v 5.000000 0.400001 3.455395
v -5.062725 1.959609 3.553847
v 5.000000 -0.000001 3.455395
v -4.235806 0.649991 3.455395
v -4.235806 -0.000001 3.455395
v 4.167480 -0.000001 3.455395
v 4.167480 0.400001 3.455395
v 3.536125 0.400001 3.455395
v 3.536125 -0.000001 3.455395
v -3.603540 0.400001 3.455395
v -3.603540 -0.000001 3.455395
v -5.000000 -0.000001 -3.598294
v 5.000000 0.400001 -3.598294
v -5.000000 1.554902 -3.598294
v 5.000000 -0.000001 -3.598294
v -4.235806 0.649991 -3.598294
v -4.235806 -0.000001 -3.598294
v 4.167480 -0.000001 -3.598294
v 4.167480 0.400001 -3.598294
v 3.536125 0.400001 -3.598294
v 3.536125 -0.000001 -3.598294
v -3.603540 0.400001 -3.598294
v -3.603540 -0.000001 -3.598294
v 6.164364 1.965342 5.102880
v 6.227089 0.005732 5.004429
v 6.227089 1.187391 -4.995674
v 6.227089 0.005732 -4.995674
v 6.227089 1.187391 -4.168072
v 6.227089 0.005732 -4.168072
v 6.227089 0.005732 4.153214
v 6.227089 0.655724 4.153214
v 6.227089 0.405734 3.459773
v 6.227089 0.005732 3.459773
v 6.227089 0.405734 -3.593916
v 6.227089 0.005732 -3.593916
v 7.983461 0.641378 4.996615
v 8.046187 0.014276 5.010953
v 8.046187 0.664268 -4.989150
v 8.046187 0.014276 -4.989150
v 8.046187 0.647430 -4.161547
v 8.046187 0.014276 -4.161547
v 8.046187 0.014276 4.159738
v 8.046187 0.664268 4.159738
v 8.046187 0.414278 3.466297
v 8.046187 0.014276 3.466297
v 8.046187 0.414278 -3.587392
v 8.046187 0.014276 -3.587392
v -5.000000 1.554902 -6.187029
v -5.000000 -0.000001 -6.187029
v 5.000000 1.181658 -6.187029
v 5.000000 -0.000001 -6.187029
v -4.235806 0.649991 -6.187029
v -4.235806 -0.000001 -6.187029
v 4.167480 -0.000001 -6.187029
v 4.167480 1.181658 -6.187029
v 3.536125 0.400001 -6.187029
v 3.536125 -0.000001 -6.187029
v -3.603540 0.400001 -6.187029
v -3.603540 -0.000001 -6.187029
v -5.000000 1.554902 -8.041868
v -5.000000 -0.000001 -8.041868
v 5.000000 0.649991 -8.041868
v 5.000000 -0.000001 -8.041868
v -4.235806 0.649991 -8.041868
v -4.235806 -0.000001 -8.041868
v 4.167480 -0.000001 -8.041868
v 4.167480 0.649991 -8.041868
v 3.536125 0.400001 -8.041868
v 3.536125 -0.000001 -8.041868
v -3.603540 0.400001 -8.041868
v -3.603540 -0.000001 -8.041868
v 2.844541 2.966008 3.695364
v 2.844541 4.216152 3.695364
v 2.844541 2.966008 3.369085
v 2.844541 4.216152 3.369085
v 3.405420 2.966008 3.695364
v 3.405420 4.216152 3.695364
v 3.405420 2.966008 3.369085
v 3.405420 4.216152 3.369085
v 1.163635 2.966008 3.695364
v 1.163635 5.826605 3.695364
v 1.163635 2.966008 3.369085
v 1.163635 5.826605 3.369085
v 1.724513 2.966008 3.695364
v 1.724513 5.826605 3.695364
v 1.724513 2.966008 3.369085
v 1.724513 5.826605 3.369085
v -0.454237 2.966008 3.695364
v -0.454237 7.258120 3.695364
v -0.454237 2.966008 3.369085
v -0.454237 7.258120 3.369085
v 0.106641 2.966008 3.695364
v 0.106641 7.258120 3.695364
v 0.106641 2.966008 3.369085
v 0.106641 7.258120 3.369085
v -2.599144 2.966008 3.636999
v -2.599144 8.040978 3.636999
v -2.599144 2.966008 3.310720
v -2.599144 8.040978 3.310720
v -2.038265 2.966008 3.636999
v -2.038265 8.040978 3.636999
v -2.038265 2.966008 3.310720
v -2.038265 8.040978 3.310720
v -3.403867 2.966008 1.894174
v -3.403867 8.040978 1.894174
v -3.077588 2.966008 1.894174
v -3.077588 8.040978 1.894174
v -3.403867 2.966008 2.455052
v -3.403867 8.040978 2.455052
v -3.077588 2.966008 2.455052
v -3.077588 8.040978 2.455052
v -3.363929 2.966008 0.122364
v -3.363929 7.258120 0.122364
v -3.037649 2.966008 0.122364
v -3.037649 7.258120 0.122364
v -3.363929 2.966008 0.683242
v -3.363929 7.258120 0.683242
v -3.037649 2.966008 0.683242
v -3.037649 7.258120 0.683242
v -3.369980 2.966008 -3.596743
v -3.369980 4.216152 -3.596743
v -3.043700 2.966008 -3.596743
v -3.043700 4.216152 -3.596743
v -3.369980 2.966008 -3.035864
v -3.369980 4.216152 -3.035864
v -3.043700 2.966008 -3.035864
v -3.043700 4.216152 -3.035864
v -3.252585 2.966008 -1.837035
v -3.252585 5.826605 -1.837036
v -2.926306 2.966008 -1.837035
v -2.926306 5.826605 -1.837036
v -3.252585 2.966008 -1.276157
v -3.252585 5.826605 -1.276157
v -2.926306 2.966008 -1.276157
v -2.926306 5.826605 -1.276157
v -3.369980 2.966008 -6.575434
v -3.369980 3.423927 -6.575434
v -3.043700 2.966008 -6.575434
v -3.043700 3.423927 -6.575434
v -3.369980 2.966008 -4.406805
v -3.369980 4.216152 -4.406805
v -3.043700 2.966008 -4.406805
v -3.043700 4.216152 -4.406805
v 4.386506 2.966008 3.695364
v 4.386506 4.216152 3.695364
v 4.386506 2.966008 3.369085
v 4.386506 4.216152 3.369085
v 6.155164 2.966008 3.695364
v 6.155164 3.423927 3.695364
v 6.155164 2.966008 3.369085
v 6.155164 3.423927 3.369085
vt 0.0000 0.0000
vt 0.0000 0.0000
vt 0.0000 0.0000
vt 0.0000 0.0000
vt 0.0000 0.0000
vt 0.0000 0.0000
vt 0.0000 0.0000
vt 0.0000 0.0000
vt 0.0000 0.0000
vt 0.0000 0.0000
vt 0.0000 0.0000
vt 0.0000 0.0000
vt 0.0000 0.0000
vt 0.0000 0.0000
vt 0.0000 0.0000
vt 0.0000 0.0000
vt 0.0000 0.0000
vt 0.0000 0.0000
vt 0.0000 0.0000
vt 0.0000 0.0000
vt 0.0000 0.0000
vt 0.0000 0.0000
vt 0.0000 0.0000
vt 0.0000 0.0000
vt 0.0000 0.0000
vt 0.0000 0.0000
vt 0.0000 0.0000
vt 0.0000 0.0000
vt 0.0000 0.0000
vt 0.0000 0.0000
vt 0.0000 0.0000
vt 0.0000 0.0000
vt 0.0000 0.0000
vt 0.0000 0.0000
vt 0.0000 0.0000
vt 0.0000 0.0000
vt 0.0000 0.0000
vt 0.0000 0.0000
vt 0.0000 0.0000
vt 0.0000 0.0000
vt 0.0000 0.0000
vt 0.0000 0.0000
vt 0.0000 0.0000
vt 0.0000 0.0000
vt 0.0000 0.0000
vt 0.0000 0.0000
vt 0.0000 0.0000
vt 0.0000 0.0000
vt 0.0000 0.0000
vt 0.0000 0.0000
vt 0.0000 0.0000
vt 0.0000 0.0000
vt 0.0000 0.0000
vt 0.0000 0.0000
vt 0.0000 0.0000
vt 0.0000 0.0000
vt 0.0000 0.0000
vt 0.0000 0.0000
vt 0.0000 0.0000
vt 0.0000 0.0000
vt 0.0000 0.0000
vt 0.0000 0.0000
vt 0.0000 0.0000
vt 0.0000 0.0000
vt 0.0000 0.0000
vt 0.0000 0.0000
vt 0.0000 0.0000
vt 0.0000 0.0000
vt 0.0000 0.0000
vt 0.0000 0.0000
vt 0.0000 0.0000
vt 0.0000 0.0000
vt 0.0000 0.0000
vt 0.0000 0.0000
vt 0.0000 0.0000
vt 0.0000 0.0000
vt 0.0000 0.0000
vt 0.0000 0.0000
vt 0.0000 0.0000
vt 0.0000 0.0000
vt 0.3678 0.5520
vt 0.4205 0.5801
vt 0.4074 0.6035
vt 0.3575 0.5781
vt 0.8662 0.2724
vt 0.8428 0.3598
vt 0.8094 0.3449
vt 0.8531 0.2678
vt 0.6269 0.1543
vt 0.5397 0.2220
vt 0.5516 0.2037
vt 0.6292 0.1241
vt 0.4862 0.3167
vt 0.5028 0.3393
vt 0.4914 0.3445
vt 0.4899 0.3341
vt 0.4671 0.0769
vt 0.4850 0.0737
vt 0.5307 0.2359
vt 0.5095 0.3568
vt 0.4922 0.3593
vt 0.4298 0.6157
vt 0.4425 0.5913
vt 0.8726 0.2615
vt 0.8800 0.2717
vt 0.8732 0.2760
vt 0.8651 0.0758
vt 0.8810 0.0524
vt 0.9133 0.0678
vt 0.9034 0.0912
vt 0.3749 0.5341
vt 0.4293 0.5644
vt 0.4732 0.3469
vt 0.5128 0.3756
vt 0.4904 0.3749
vt 0.4268 0.0205
vt 0.4491 0.0143
vt 0.9851 0.5761
vt 0.6505 0.5777
vt 0.6504 0.5192
vt 0.9850 0.5177
vt 0.4653 0.3600
vt 0.2838 0.2330
vt 0.3003 0.2263
vt 0.5349 0.3724
vt 0.5251 0.3508
vt 0.1343 0.4744
vt 0.1471 0.4484
vt 0.4488 0.6258
vt 0.4616 0.6003
vt 0.5128 0.3323
vt 0.4913 0.3048
vt 0.4101 0.6507
vt 0.3875 0.6377
vt 0.6232 0.1728
vt 0.6481 0.1578
vt 0.6435 0.1789
vt 0.8458 0.0539
vt 0.8625 0.0370
vt 0.6666 0.1610
vt 0.6620 0.1843
vt 0.4103 0.0264
vt 0.4541 0.0805
vt 0.8635 0.3641
vt 0.5226 0.2482
vt 0.4289 0.6615
vt 0.8288 0.0919
vt 0.8178 0.0706
vt 0.3001 0.2117
vt 0.5859 0.9873
vt 0.5843 0.6476
vt 0.6235 0.6474
vt 0.6251 0.9871
vt 0.2236 0.1720
vt 0.6192 0.1861
vt 0.6382 0.1945
vt 0.8350 0.0402
vt 0.8502 0.0253
vt 0.6562 0.2025
vt 0.0559 0.4324
vt 0.0698 0.4062
vt 0.5296 0.9876
vt 0.5280 0.6479
vt 0.0566 0.9485
vt 0.0718 0.9354
vt 0.0693 0.9368
vt 0.0545 0.9506
vt 0.0531 0.9520
vt 0.0675 0.9378
vt 0.0463 0.9498
vt 0.0341 0.9283
vt 0.1556 0.4314
vt 0.0796 0.3885
vt 0.0515 0.9505
vt 0.0330 0.9264
vt 0.6524 0.9870
vt 0.6508 0.6473
vt 0.9854 0.6457
vt 0.9870 0.9855
vt 0.6506 0.6173
vt 0.9853 0.6157
vt 0.0494 0.9484
vt 0.0316 0.9239
vt 0.4694 0.5824
vt 0.4506 0.5745
vt 0.6518 0.1254
vt 0.9103 0.3566
vt 0.8900 0.3628
vt 0.4843 0.0085
vt 0.5149 0.0728
vt 0.8727 0.0253
vt 0.8896 0.0389
vt 0.8761 0.3767
vt 0.8604 0.0141
vt 0.9665 0.0833
vt 0.9601 0.1070
vt 0.5752 0.0700
vt 0.6237 0.1188
vt 0.8927 0.2654
vt 0.8891 0.2573
vt 0.9497 0.2337
vt 0.9574 0.2563
vt 0.0463 0.9453
vt 0.0295 0.9202
vt 0.0264 0.9147
vt 0.0417 0.9408
vt 0.9428 0.3420
vt 0.9925 0.2988
vt 0.9193 0.0524
vt 0.6708 0.1271
vt 0.0398 0.9524
vt 0.0243 0.9159
vt 0.0367 0.9592
vt 0.0845 0.9529
vt 0.1063 0.9417
vt 0.1063 0.9278
vt 0.1092 0.9278
vt 0.1092 0.9414
vt 0.0180 0.9525
vt 0.0356 0.9347
vt 0.1113 0.9278
vt 0.1113 0.9364
vt 0.6387 0.0985
vt 0.6542 0.0746
vt 0.6503 0.4327
vt 0.9849 0.4311
vt 0.5425 0.0026
vt 0.6737 0.0757
vt 0.9712 0.0670
vt 0.1160 0.5124
vt 0.3426 0.6161
vt 0.3191 0.6772
vt 0.0872 0.5731
vt 0.0753 0.9334
vt 0.0596 0.9455
vt 0.0642 0.9408
vt 0.0809 0.9303
vt 0.0363 0.4708
vt 0.0067 0.5317
vt 0.3965 0.7163
vt 0.3778 0.7052
vt 0.8101 0.0553
vt 0.7687 0.0891
vt 0.7628 0.0730
vt 0.8561 0.2588
vt 0.1033 0.9417
vt 0.1033 0.9278
vt 0.1062 0.9278
vt 0.1062 0.9417
vt 0.1837 0.9767
vt 0.1153 0.9080
vt 0.1190 0.9091
vt 0.1413 0.9498
vt 0.1010 0.9364
vt 0.1010 0.9278
vt 0.0883 0.9526
vt 0.0702 0.9347
vt 0.1222 0.9100
vt 0.1173 0.9399
vt 0.7890 0.2614
vt 0.7931 0.2383
vt 0.3551 0.6918
vt 0.7753 0.1105
vt 0.4416 0.9880
vt 0.4400 0.6483
vt 0.7565 0.3082
vn -1.0000 0.0000 0.0000
vn 0.0000 0.0000 -1.0000
vn 1.0000 0.0000 0.0000
vn 0.0000 0.0000 1.0000
vn 0.0000 -1.0000 0.0000
vn 0.0000 1.0000 0.0000
vn 0.0000 0.9393 -0.3431
vn 0.4088 0.9126 0.0000
vn 0.3435 -0.9391 0.0000
vn 0.7071 0.7071 0.0000
vn 0.4311 -0.9023 0.0000
vn 0.3823 -0.9235 0.0300
vn 0.3739 -0.9215 0.1050
vn -0.0004 0.7255 -0.6882
vn 0.0027 -0.9433 -0.3318
vn -0.1587 -0.9166 -0.3670
vn -0.0077 0.7214 -0.6924
vn -0.3716 -0.7946 -0.4801
vn 0.0000 0.7246 -0.6891
vn 0.5697 0.5988 -0.5629
vn 0.4794 -0.6815 -0.5529
vn 0.0000 -0.7993 0.6009
vn 0.0008 -0.7996 0.6005
vn 0.0000 -0.9431 -0.3323
vn 0.6957 0.7183 0.0000
vn -0.3013 -0.9042 0.3025
vn 0.0029 -0.8922 -0.4515
vn 0.3413 -0.8686 -0.3591
vn -0.3040 0.9040 0.3006
vn -0.0023 1.0000 0.0000
vn -0.0047 1.0000 0.0000
vn -0.0058 0.7071 0.7071
vn 0.3335 -0.9426 0.0134
vn 0.7039 0.7102 0.0014
vn 0.4429 -0.8233 0.3549
vn 0.6983 0.7158 0.0014
vn 0.0000 -0.9850 0.1721
vn 0.0020 -0.9851 0.1719
vn 0.0029 -0.8921 -0.4518
vn -0.0251 -0.9154 -0.4017
vn 0.0040 -0.9850 0.1721
vn 0.3020 -0.9532 0.0143
vn -0.5911 -0.8050 0.0501
vn -0.4350 -0.8044 0.4045
vn -0.5835 -0.8121 0.0000
vn 0.3409 -0.9298 -0.1384
vn -0.7071 0.7071 0.0000
vn -0.0509 -0.8212 0.5684
vn -0.1871 -0.9823 0.0000
vn -0.1418 -0.9813 0.1303
vn -0.5990 -0.8007 0.0034
vn 0.1200 -0.9839 -0.1319
vn 0.1264 -0.9233 -0.3626
vn -0.0700 -0.8467 0.5274
vn -0.7088 0.7054 0.0000
vn -0.5795 0.5760 0.5765
vn -0.7229 -0.6242 0.2962
vn -0.7313 -0.4605 -0.5031
vn -0.1036 -0.9131 -0.3943
vn -0.1050 -0.7308 0.6745
vn -0.6432 -0.4877 0.5903
vn -0.7523 -0.6100 -0.2488
vn -0.7827 -0.5824 -0.2193
vn -0.7171 0.6968 -0.0135
vn -0.5874 0.5730 -0.5715
vn -0.7466 -0.6552 0.1148
vn 0.2880 -0.7875 0.5449
vn -0.3748 -0.5217 0.7664
vn 0.0000 0.7071 0.7071
vn -0.1234 -0.6478 0.7517
vn -0.6771 -0.7287 0.1024
vn 0.2330 -0.6198 0.7494
vn -0.5773 0.5773 0.5773
vn -0.5935 -0.4844 0.6428
vn 0.5773 0.5773 0.5773
vn 0.2090 -0.5882 0.7812
usemtl Material.002
s off
f 121/1/1 122/2/1 124/3/1 123/4/1
f 123/4/2 124/3/2 128/5/2 127/6/2
f 127/6/3 128/5/3 126/7/3 125/8/3
f 125/8/4 126/7/4 122/2/4 121/1/4
f 123/4/5 127/6/5 125/8/5 121/1/5
f 128/5/6 124/3/6 122/2/6 126/7/6
f 129/9/1 130/10/1 132/11/1 131/12/1
f 131/12/2 132/11/2 136/13/2 135/14/2
f 135/14/3 136/13/3 134/15/3 133/16/3
f 133/16/4 134/15/4 130/10/4 129/9/4
f 131/12/5 135/14/5 133/16/5 129/9/5
f 136/13/6 132/11/6 130/10/6 134/15/6
f 137/17/1 138/18/1 140/19/1 139/20/1
f 139/20/2 140/19/2 144/21/2 143/22/2
f 143/22/3 144/21/3 142/23/3 141/24/3
f 141/24/4 142/23/4 138/18/4 137/17/4
f 139/20/5 143/22/5 141/24/5 137/17/5
f 144/21/6 140/19/6 138/18/6 142/23/6
f 145/25/1 146/26/1 148/27/1 147/28/1
f 147/28/2 148/27/2 152/29/2 151/30/2
f 151/30/3 152/29/3 150/31/3 149/32/3
f 149/32/4 150/31/4 146/26/4 145/25/4
f 147/28/5 151/30/5 149/32/5 145/25/5
f 152/29/6 148/27/6 146/26/6 150/31/6
f 153/33/2 154/34/2 156/35/2 155/36/2
f 155/36/3 156/35/3 160/37/3 159/38/3
f 159/38/4 160/37/4 158/39/4 157/40/4
f 157/40/1 158/39/1 154/34/1 153/33/1
f 155/36/5 159/38/5 157/40/5 153/33/5
f 160/37/6 156/35/6 154/34/6 158/39/6
f 161/41/2 162/42/2 164/43/2 163/44/2
f 163/44/3 164/43/3 168/45/3 167/46/3
f 167/46/4 168/45/4 166/47/4 165/48/4
f 165/48/1 166/47/1 162/42/1 161/41/1
f 163/44/5 167/46/5 165/48/5 161/41/5
f 168/45/6 164/43/6 162/42/6 166/47/6
f 169/49/2 170/50/2 172/51/2 171/52/2
f 171/52/3 172/51/3 176/53/3 175/54/3
f 175/54/4 176/53/4 174/55/4 173/56/4
f 173/56/1 174/55/1 170/50/1 169/49/1
f 171/52/5 175/54/5 173/56/5 169/49/5
f 176/53/6 172/51/6 170/50/6 174/55/6
f 177/57/2 178/58/2 180/59/2 179/60/2
f 179/60/3 180/59/3 184/61/3 183/62/3
f 183/62/4 184/61/4 182/63/4 181/64/4
f 181/64/1 182/63/1 178/58/1 177/57/1
f 179/60/5 183/62/5 181/64/5 177/57/5
f 184/61/6 180/59/6 178/58/6 182/63/6
f 185/65/2 186/66/2 188/67/2 187/68/2
f 187/68/3 188/67/3 192/69/3 191/70/3
f 191/70/4 192/69/4 190/71/4 189/72/4
f 189/72/1 190/71/1 186/66/1 185/65/1
f 187/68/5 191/70/5 189/72/5 185/65/5
f 192/69/7 188/67/7 186/66/7 190/71/7
f 193/73/1 194/74/1 196/75/1 195/76/1
f 195/76/2 196/75/2 200/77/2 199/78/2
f 199/78/3 200/77/3 198/79/3 197/80/3
f 197/80/4 198/79/4 194/74/4 193/73/4
f 195/76/5 199/78/5 197/80/5 193/73/5
f 200/77/8 196/75/8 194/74/8 198/79/8
s 1
f 9/81/9 10/82/10 4/83/10 3/84/9
f 29/85/11 33/86/11 105/87/12 104/88/13
f 6/89/14 5/90/15 73/91/16 74/92/17
f 19/93/18 20/94/19 2/95/20 1/96/21
f 32/97/22 16/98/23 5/90/15 26/99/24
f 23/100/6 15/101/25 2/95/20 20/94/19
f 18/102/6 4/83/10 10/82/10 21/103/6
f 29/85/11 7/104/26 11/105/27 31/106/28
f 8/107/29 12/108/30 78/109/31 76/110/32
f 63/111/33 61/112/34 10/82/10 9/81/9
f 1/96/21 2/95/20 15/101/25 13/113/35
f 54/114/6 49/115/36 15/101/25 23/100/6
f 56/116/37 50/117/38 16/98/23 32/97/22
f 50/118/38 62/119/39 83/120/40 81/121/41
f 51/122/42 53/123/43 24/124/44 13/113/35
f 60/125/6 54/114/6 23/100/6 48/126/6
f 3/84/9 17/127/45 22/128/45 9/81/9
f 45/129/6 18/102/6 21/103/6 47/130/6
f 48/126/6 23/100/6 20/94/19 42/131/19
f 13/113/35 24/124/44 19/93/18 1/96/21
f 46/132/24 42/131/19 20/94/19 19/93/18
f 4/83/10 18/102/6 102/133/6 98/134/10
f 5/90/15 6/89/14 30/135/19 26/99/24
f 14/136/30 28/137/6 30/135/19 6/89/14
f 8/107/29 25/138/6 27/139/6 12/108/30
f 52/140/30 55/141/6 28/137/6 14/136/30
f 57/142/37 56/116/37 32/97/22 36/143/22
f 33/86/11 29/85/11 31/106/28 35/144/46
f 36/143/22 32/97/22 26/99/24 38/145/24
f 18/102/6 45/129/6 108/146/6 102/133/6
f 25/138/6 8/107/29 100/147/47 103/148/6
f 44/149/48 36/143/22 38/145/24 46/132/24
f 41/150/49 33/151/11 35/152/46 43/153/49
f 59/154/50 57/142/37 36/143/22 44/149/48
f 26/99/24 30/135/19 34/155/19 38/145/24
f 28/137/6 40/156/6 34/155/19 30/135/19
f 25/138/6 37/157/6 39/158/6 27/139/6
f 55/141/6 58/159/6 40/156/6 28/137/6
f 53/123/43 59/154/50 44/149/48 24/124/44
f 17/127/45 41/160/49 43/161/49 22/128/45
f 24/124/44 44/149/48 46/132/24 19/93/18
f 33/151/11 41/150/49 107/162/49 105/163/12
f 38/145/24 34/155/19 42/131/19 46/132/24
f 40/156/6 48/126/6 42/131/19 34/155/19
f 37/164/6 45/165/6 47/166/6 39/167/6
f 58/159/6 60/125/6 48/126/6 40/156/6
f 70/168/6 72/169/6 60/170/6 58/171/6
f 65/172/51 71/173/49 59/154/50 53/123/43
f 67/174/6 70/168/6 58/171/6 55/175/6
f 71/176/49 69/177/52 57/178/37 59/179/50
f 69/177/52 68/180/53 56/181/37 57/178/37
f 64/182/30 67/174/6 55/175/6 52/183/30
f 72/184/6 66/185/6 54/114/6 60/125/6
f 63/111/33 65/172/51 53/123/43 51/122/42
f 14/136/30 6/89/14 74/92/17 79/186/31
f 68/180/53 62/119/39 50/118/38 56/181/37
f 66/185/6 61/112/34 49/115/36 54/114/6
f 13/113/35 15/101/25 49/115/36 51/122/42
f 21/103/6 10/82/10 61/112/34 66/185/6
f 31/106/28 11/105/27 62/187/39 68/188/53
f 16/98/23 50/117/38 81/189/41 80/190/54
f 9/81/9 22/128/45 65/172/51 63/111/33
f 47/130/6 21/103/6 66/185/6 72/184/6
f 12/108/30 27/139/6 67/191/6 64/192/30
f 35/144/46 31/106/28 68/188/53 69/193/52
f 43/153/49 35/152/46 69/177/52 71/176/49
f 27/139/6 39/158/6 70/194/6 67/191/6
f 22/128/45 43/161/49 71/173/49 65/172/51
f 39/167/6 47/166/6 72/169/6 70/168/6
f 51/122/42 49/115/36 61/112/34 63/111/33
f 76/110/32 78/109/31 90/195/55 88/196/56
f 73/91/16 80/190/54 92/197/57 85/198/58
f 77/199/59 75/200/60 87/201/61 89/202/62
f 84/203/31 82/204/31 94/205/55 96/206/55
f 83/207/40 77/199/59 89/202/62 95/208/63
f 7/104/26 8/107/29 76/110/32 75/200/60
f 5/90/15 16/98/23 80/190/54 73/91/16
f 64/182/30 52/183/30 82/204/31 84/203/31
f 12/108/30 64/192/30 84/209/31 78/109/31
f 11/105/27 7/104/26 75/200/60 77/199/59
f 62/187/39 11/105/27 77/199/59 83/207/40
f 52/140/30 14/136/30 79/186/31 82/210/31
f 92/211/57 91/212/64 86/213/65 85/214/58
f 87/215/61 88/216/56 90/217/55 89/218/62
f 93/219/66 94/205/55 91/212/64 92/211/57
f 95/220/63 96/206/55 94/205/55 93/219/66
f 89/218/62 90/217/55 96/221/55 95/222/63
f 79/186/31 74/92/17 86/223/65 91/224/64
f 81/121/41 83/120/40 95/225/63 93/226/66
f 74/92/17 73/91/16 85/198/58 86/223/65
f 80/190/54 81/189/41 93/227/66 92/197/57
f 75/200/60 76/110/32 88/196/56 87/201/61
f 82/210/31 79/186/31 91/224/64 94/228/55
f 78/109/31 84/209/31 96/229/55 90/195/55
f 101/230/45 97/231/9 109/232/67 113/233/68
f 108/234/6 106/235/6 118/236/69 120/237/69
f 107/238/49 101/230/45 113/233/68 119/239/70
f 102/133/6 108/146/6 120/240/69 114/241/69
f 106/242/6 103/148/6 115/243/69 118/244/69
f 8/107/29 7/104/26 99/245/71 100/147/47
f 45/165/6 37/164/6 106/235/6 108/234/6
f 3/84/9 4/83/10 98/134/10 97/231/9
f 37/157/6 25/138/6 103/148/6 106/242/6
f 7/104/26 29/85/11 104/88/13 99/245/71
f 17/127/45 3/84/9 97/231/9 101/230/45
f 41/160/49 17/127/45 101/230/45 107/238/49
f 116/246/72 115/247/69 112/248/73 111/249/74
f 109/250/67 110/251/75 114/252/69 113/253/68
f 117/254/76 118/255/69 115/247/69 116/246/72
f 119/256/70 120/237/69 118/236/69 117/257/76
f 113/253/68 114/252/69 120/258/69 119/259/70
f 99/245/71 104/88/13 116/260/72 111/261/74
f 98/134/10 102/133/6 114/241/69 110/262/75
f 103/148/6 100/147/47 112/263/73 115/243/69
f 105/163/12 107/162/49 119/264/70 117/265/76
f 100/147/47 99/245/71 111/261/74 112/263/73
f 104/88/13 105/87/12 117/266/76 116/260/72
f 97/231/9 98/134/10 110/262/75 109/232/67
