# 3ds Max Wavefront OBJ Exporter v0.97b - (c)2007 guruware
# File Created: 08.03.2017 03:56:22

mtllib f1.mtl

#
# object ff01
#

v  -128.0000 -15.6710 47.7976
v  -135.3607 21.5050 47.7976
v  -80.8221 41.5250 8.5800
v  -96.1842 -11.9950 8.5800
v  -147.0607 -26.5450 32.5388
v  -156.9607 25.9350 32.5388
v  -183.1907 -32.7750 32.5388
v  -193.1007 19.7050 32.5388
v  -205.0007 -30.3250 47.7976
v  -211.4007 4.5350 47.7976
v  -302.2207 -54.4250 -0.6612
v  -263.8007 -12.1352 36.0288
v  -77.7738 22.5850 -46.3497
v  -93.3057 -25.3550 -34.7122
v  -41.5876 20.6550 -62.7057
v  -49.1318 -27.2850 -54.8843
v  -39.5702 -7.9353 -92.5262
v  -35.2629 1.9174 -95.7613
v  -44.0195 -49.0592 -122.6728
v  -58.4054 -43.1076 -84.4611
v  -33.0254 -18.5059 -122.6296
v  -0.0200 50.5672 8.0339
v  -17.0200 40.5850 -74.7000
v  -21.2035 10.0552 -121.9479
v  -0.0197 55.2520 88.9723
v  -74.7059 45.4320 91.8685
v  -74.2176 38.9552 161.1187
v  -0.0211 45.2350 149.8187
v  -135.3607 21.5050 148.4187
v  -128.0000 -15.6710 148.4187
v  -74.1306 -22.6550 161.1187
v  0.0363 -22.6550 149.8187
v  -263.8007 -12.1352 106.1287
v  -302.2207 -54.4250 51.0228
v  -205.0007 -30.3250 148.4187
v  -211.4007 4.5350 148.4187
v  -156.9607 25.9350 166.4187
v  -147.0607 -26.5450 166.4187
v  -193.1007 19.7050 166.4187
v  -183.1907 -32.7750 166.4187
v  -65.7220 -22.6550 81.7587
v  17.0800 40.5850 -74.7000
v  80.7206 41.5250 8.5800
v  135.2591 21.5050 47.7976
v  128.3591 -15.6710 47.7976
v  96.5434 -11.9950 8.5800
v  156.8591 25.9350 32.5388
v  146.9591 -26.5450 32.5388
v  193.0591 19.7050 32.5388
v  183.0591 -32.7750 32.5388
v  211.2591 4.5350 47.7976
v  204.9591 -30.3250 47.7976
v  263.6591 -12.1352 36.0288
v  302.1591 -54.4250 -0.6612
v  93.3231 -25.3550 -34.7122
v  77.7360 22.5850 -46.3497
v  41.7533 20.6550 -62.7057
v  49.1917 -27.2850 -54.8843
v  -17.4200 -51.0745 -168.6225
v  0.0991 -19.6590 -158.0735
v  17.6876 -51.0745 -168.6224
v  -12.1987 -20.9199 -156.0474
v  21.3711 10.0552 -121.9479
v  -0.0592 5.3244 -122.7689
v  19.8207 5.0825 -116.3360
v  74.1163 38.9552 161.1187
v  74.6033 45.4320 91.8685
v  135.2591 21.5050 148.4187
v  74.1163 -22.6550 161.1187
v  128.3591 -15.6710 148.4187
v  211.2591 4.5350 148.4187
v  204.9591 -30.3250 148.4187
v  263.6591 -12.1352 106.1287
v  302.1591 -54.4250 51.0228
v  146.9591 -26.5450 166.4187
v  156.8591 25.9350 166.4187
v  183.0591 -32.7750 166.4187
v  193.0591 19.7050 166.4187
v  66.0808 -22.6550 81.7587
v  0.0363 -40.7535 16.8100
v  35.6800 -28.6967 16.8100
v  29.9118 -38.7050 112.8287
v  0.0363 -38.7050 112.8287
v  58.7390 -43.1076 -84.3957
v  0.0363 -38.6116 -54.8843
v  44.3948 -49.0592 -122.6727
v  39.9455 -7.9353 -92.5262
v  35.5794 1.9082 -95.7714
v  33.4008 -18.5059 -122.6296
v  12.3969 -21.4533 -151.8395
v  -19.9390 4.5982 -116.0423
v  -29.8391 -38.7050 112.8287
v  -35.6074 -28.6967 16.8100
# 93 vertices

vn 0.1747 -0.8044 -0.5678
vn -0.0340 0.8168 -0.5760
vn -0.4974 0.8186 -0.2873
vn -0.8114 -0.5362 -0.2327
vn 0.4012 -0.5974 -0.6944
vn 0.1772 0.7015 -0.6903
vn -0.1598 -0.6967 -0.6993
vn -0.4290 0.5980 -0.6770
vn -0.0212 -0.8200 -0.5719
vn -0.4926 0.6628 -0.5640
vn -0.5684 -0.3302 -0.7536
vn -0.4033 0.8451 -0.3509
vn -0.5980 0.5127 -0.6161
vn -0.7478 -0.5593 -0.3579
vn -0.6639 0.6005 -0.4458
vn -0.6639 -0.7276 -0.1728
vn -0.9183 0.3018 -0.2563
vn -0.8726 0.3183 -0.3705
vn -0.7570 -0.5911 -0.2786
vn -0.8727 -0.4820 0.0783
vn -0.8077 0.3987 -0.4342
vn -0.0000 0.9901 -0.1401
vn -0.3548 0.8910 -0.2834
vn -0.4826 0.1121 -0.8686
vn 0.0001 0.9994 0.0337
vn -0.2320 0.9725 0.0215
vn -0.1354 0.6397 0.7566
vn 0.0000 0.6980 0.7161
vn 0.1497 0.7850 0.6012
vn 0.2669 -0.7922 0.5488
vn -0.1171 -0.6470 0.7535
vn -0.0001 -0.5857 0.8105
vn -0.7420 0.4501 0.4968
vn -0.8454 -0.5045 0.1754
vn -0.4479 -0.7181 0.5326
vn -0.7458 0.4229 0.5148
vn 0.1991 0.6974 0.6885
vn 0.4216 -0.5855 0.6924
vn -0.4461 0.5859 0.6765
vn -0.1853 -0.6926 0.6972
vn -0.2393 -0.9698 -0.0479
vn 0.3537 0.8915 -0.2831
vn 0.4953 0.8202 -0.2861
vn 0.0357 0.8175 -0.5748
vn -0.1862 -0.8030 -0.5662
vn 0.8123 -0.5333 -0.2362
vn -0.1773 0.7015 -0.6903
vn -0.4047 -0.5967 -0.6930
vn 0.4297 0.5978 -0.6768
vn 0.1588 -0.6970 -0.6993
vn 0.4949 0.6618 -0.5631
vn 0.0202 -0.8200 -0.5720
vn 0.4028 0.8453 -0.3509
vn 0.5686 -0.3300 -0.7535
vn 0.7461 -0.5602 -0.3599
vn 0.5971 0.5138 -0.6160
vn 0.6636 0.6017 -0.4446
vn 0.6644 -0.7284 -0.1677
vn -0.4475 -0.4787 -0.7553
vn 0.0867 0.6232 -0.7773
vn 0.4669 -0.4589 -0.7559
vn -0.4655 0.5622 -0.6836
vn 0.4834 0.0993 -0.8698
vn -0.0093 0.4767 -0.8790
vn 0.6426 -0.1126 -0.7579
vn 0.1350 0.6399 0.7565
vn 0.2320 0.9725 0.0215
vn -0.1480 0.7835 0.6035
vn 0.1164 -0.6468 0.7538
vn -0.3406 -0.6995 0.6283
vn 0.7465 0.4222 0.5143
vn 0.4478 -0.7172 0.5339
vn 0.7417 0.4509 0.4965
vn 0.8456 -0.5041 0.1755
vn -0.4260 -0.5839 0.6911
vn -0.2006 0.6968 0.6886
vn 0.1848 -0.6926 0.6972
vn 0.4471 0.5854 0.6763
vn 0.2379 -0.9701 -0.0476
vn 0.0000 -0.9997 -0.0242
vn 0.2815 -0.9596 0.0052
vn 0.1480 -0.9812 0.1235
vn 0.0000 -0.9769 0.2137
vn 0.8728 -0.4810 0.0822
vn -0.0001 -0.9917 0.1286
vn 0.7547 -0.5866 -0.2940
vn 0.9184 0.3038 -0.2536
vn 0.8703 0.3249 -0.3702
vn 0.7924 0.3944 -0.4655
vn 0.5769 0.5350 -0.6172
vn -0.6630 -0.0693 -0.7454
vn -0.1255 -0.9920 -0.0133
vn -0.1486 -0.9812 0.1232
vn -0.2820 -0.9594 0.0056
# 94 vertex normals

vt 0.5011 0.6312 0.0000
vt 0.4849 0.5129 0.0000
vt 0.3471 0.5266 0.0000
vt 0.4034 0.6895 0.0000
vt 0.5609 0.6486 0.0000
vt 0.5590 0.4812 0.0000
vt 0.5003 0.5040 0.0000
vt 0.5019 0.6225 0.0000
vt 0.6702 0.6483 0.0000
vt 0.6684 0.4808 0.0000
vt 0.5608 0.6487 0.0000
vt 0.7331 0.6340 0.0000
vt 0.7316 0.5228 0.0000
vt 0.9932 0.5537 0.0000
vt 0.8573 0.4832 0.0000
vt 0.7300 0.5084 0.0000
vt 0.5900 0.7517 0.0000
vt 0.4457 0.6962 0.0000
vt 0.4144 0.8575 0.0000
vt 0.5607 0.8772 0.0000
vt 0.8622 0.9050 0.0000
vt 0.8496 0.6970 0.0000
vt 0.6330 0.7026 0.0000
vt 0.6343 0.8869 0.0000
vt 0.2635 0.8138 0.0000
vt 0.3870 0.7829 0.0000
vt 0.2607 0.7178 0.0000
vt 0.2480 0.7955 0.0000
vt 0.2450 0.9344 0.0000
vt 0.3363 0.8744 0.0000
vt 0.1928 0.8511 0.0000
vt 0.2197 0.7110 0.0000
vt 0.0935 0.5227 0.0000
vt 0.1442 0.7273 0.0000
vt 0.1830 0.8143 0.0000
vt 0.1077 0.3524 0.0000
vt 0.3347 0.3503 0.0000
vt 0.3169 0.1395 0.0000
vt 0.0935 0.1670 0.0000
vt 0.3433 0.5256 0.0000
vt 0.3128 0.6815 0.0000
vt 0.5189 0.4423 0.0000
vt 0.5189 0.1949 0.0000
vt 0.1030 0.3525 0.0000
vt 0.5134 0.0870 0.0000
vt 0.3193 0.0007 0.0000
vt 0.3192 0.1389 0.0000
vt 0.5368 0.1852 0.0000
vt 0.0959 0.0005 0.0000
vt 0.0958 0.1649 0.0000
vt 0.3192 0.1392 0.0000
vt 0.8670 0.5017 0.0000
vt 0.9929 0.5536 0.0000
vt 0.7338 0.6339 0.0000
vt 0.7399 0.5357 0.0000
vt 0.5588 0.4810 0.0000
vt 0.5612 0.6487 0.0000
vt 0.4992 0.5125 0.0000
vt 0.6682 0.4799 0.0000
vt 0.6706 0.6476 0.0000
vt 0.7300 0.5083 0.0000
vt 0.7318 0.6201 0.0000
vt 0.6705 0.6484 0.0000
vt 0.8656 0.2891 0.0000
vt 0.8661 0.5009 0.0000
vt 0.9930 0.5535 0.0000
vt 0.9934 0.3838 0.0000
vt 0.5584 0.4806 0.0000
vt 0.5579 0.1502 0.0000
vt 0.5193 0.4432 0.0000
vt 0.6685 0.4800 0.0000
vt 0.6680 0.1496 0.0000
vt 0.7251 0.4423 0.0000
vt 0.7287 0.1934 0.0000
vt 0.6734 0.1488 0.0000
vt 0.8660 0.2928 0.0000
vt 0.7268 0.2412 0.0000
vt 0.3361 0.3470 0.0000
vt 0.5186 0.1951 0.0000
vt 0.5564 0.1502 0.0000
vt 0.5591 0.4810 0.0000
vt 0.5206 0.4430 0.0000
vt 0.5186 0.1944 0.0000
vt 0.6733 0.1499 0.0000
vt 0.6679 0.4798 0.0000
vt 0.5645 0.1511 0.0000
vt 0.7263 0.1949 0.0000
vt 0.7223 0.4428 0.0000
vt 0.9957 0.3269 0.0000
vt 0.9933 0.5699 0.0000
vt 0.7287 0.5268 0.0000
vt 0.7253 0.2410 0.0000
vt 0.0428 0.7273 0.0000
vt 0.5611 0.6486 0.0000
vt 0.7313 0.5229 0.0000
vt 0.5618 0.8761 0.0000
vt 0.0303 0.9995 0.0000
vt 0.0907 0.8608 0.0000
vt 0.1491 0.9995 0.0000
vt 0.0347 0.8610 0.0000
vt 0.0045 0.8144 0.0000
vt 0.1858 0.7272 0.0000
vt 0.0970 0.8340 0.0000
vt 0.1748 0.8338 0.0000
vt 0.6703 0.6477 0.0000
vt 0.7321 0.6200 0.0000
vt 0.3550 0.5528 0.0000
vt 0.0934 0.5231 0.0000
vt 0.1996 0.5234 0.0000
vt 0.1850 0.2586 0.0000
vt 0.0961 0.2586 0.0000
vt 0.1799 0.2586 0.0000
vt 0.3361 0.3487 0.0000
vt 0.3415 0.5246 0.0000
vt 0.2178 0.7192 0.0000
vt 0.0935 0.2586 0.0000
vt 0.0033 0.7306 0.0000
vt 0.1789 0.7299 0.0000
vt 0.0886 0.6822 0.0000
vt -0.0176 0.6815 0.0000
vt 0.0306 0.7838 0.0000
vt 0.1506 0.7827 0.0000
vt 0.1468 0.8606 0.0000
vt 0.1496 0.9994 0.0000
vt 0.0245 0.8236 0.0000
vt 0.1508 0.8241 0.0000
vt 0.9809 0.0071 -0.1240
vt 0.9806 0.1300 0.1955
vt 0.8594 0.1295 0.7328
vt 0.9026 0.0071 0.2516
vt 0.7638 0.1294 0.7347
vt 0.7744 0.0071 0.8681
vt 0.8267 0.0071 0.8691
vt 0.6682 0.1294 0.7365
vt 0.7222 0.0071 0.8671
vt 0.5384 0.1283 0.1894
vt 0.5382 0.0071 -0.1309
vt 0.6357 0.0071 0.2461
vt 0.1949 0.6829 0.0000
vt 0.0193 0.8342 0.0000
# 140 texture coords

g ff01
usemtl 21
s 1
f 1/1/1 2/2/2 3/3/3 4/4/4 
f 5/5/5 6/6/6 2/7/2 1/8/1 
f 7/9/7 8/10/8 6/6/6 5/11/5 
f 9/12/9 10/13/10 8/10/8 7/9/7 
f 11/14/11 12/15/12 10/16/10 9/12/9 
f 4/17/4 3/18/3 13/19/13 14/20/14 
f 14/21/14 13/22/13 15/23/15 16/24/16 
f 17/25/17 16/26/16 15/27/15 18/28/18 
f 19/29/19 20/30/20 17/25/17 21/31/21 
f 15/32/15 22/33/22 23/34/23 
f 23/34/23 24/35/24 15/32/15 
f 25/36/25 26/37/26 27/38/27 28/39/28 
f 3/40/3 22/33/22 13/41/13 
f 15/32/15 13/41/13 22/33/22 
f 3/40/3 2/42/2 26/37/26 
f 26/37/26 29/43/29 27/38/27 
f 22/33/22 3/40/3 26/37/26 25/44/25 
f 26/37/26 2/42/2 29/43/29 
f 30/45/30 31/46/31 27/47/27 29/48/29 
f 31/46/31 32/49/32 28/50/28 27/51/27 
f 33/52/33 34/53/34 35/54/35 36/55/36 
f 37/56/37 38/57/38 30/1/30 29/58/29 
f 39/59/39 40/60/40 38/57/38 37/56/37 
f 36/61/36 35/62/35 40/63/40 39/59/39 
f 33/64/33 12/65/12 11/66/11 34/67/34 
f 6/68/6 37/69/37 29/43/29 2/70/2 
f 8/71/8 39/72/39 37/69/37 6/68/6 
f 10/73/10 36/74/36 39/75/39 8/71/8 
f 12/65/12 33/76/33 36/77/36 10/73/10 
f 41/78/41 31/38/31 30/79/30 
f 38/80/38 5/81/5 1/82/1 30/83/30 
f 40/84/40 7/85/7 5/81/5 38/86/38 
f 35/87/35 9/88/9 7/85/7 40/84/40 
f 34/89/34 11/90/11 9/91/9 35/92/35 
f 42/34/42 23/93/23 22/33/22 
f 43/3/43 44/2/44 45/1/45 46/4/46 
f 44/7/44 47/6/47 48/5/48 45/8/45 
f 47/6/47 49/10/49 50/9/50 48/94/48 
f 49/10/49 51/95/51 52/12/52 50/9/50 
f 51/16/51 53/15/53 54/14/54 52/12/52 
f 46/17/46 55/96/55 56/19/56 
f 56/19/56 43/18/43 46/17/46 
f 57/23/57 56/22/56 55/21/55 58/24/58 
f 59/97/59 60/98/60 61/99/61 
f 60/98/60 59/97/59 62/100/62 
f 63/35/63 24/101/24 23/93/23 42/102/42 
f 64/103/64 63/35/63 65/104/65 
f 63/35/63 64/103/64 24/101/24 
f 22/33/22 57/32/57 42/34/42 
f 63/35/63 42/34/42 57/32/57 
f 25/36/25 28/39/28 66/38/66 67/37/67 
f 22/33/22 43/40/43 56/41/56 
f 56/41/56 57/32/57 22/33/22 
f 44/42/44 43/40/43 67/37/67 
f 68/43/68 44/42/44 67/37/67 
f 67/37/67 43/40/43 22/33/22 25/44/25 
f 68/43/68 67/37/67 66/38/66 
f 66/47/66 69/46/69 70/45/70 68/48/68 
f 28/50/28 32/49/32 69/46/69 66/51/66 
f 71/61/71 72/54/72 73/52/73 
f 74/53/74 73/52/73 72/54/72 
f 70/1/70 75/57/75 76/56/76 68/58/68 
f 75/57/75 77/105/77 78/59/78 76/56/76 
f 77/63/77 72/106/72 71/61/71 78/59/78 
f 54/66/54 53/65/53 73/64/73 74/67/74 
f 68/43/68 76/69/76 47/68/47 44/70/44 
f 76/69/76 78/72/78 49/71/49 47/68/47 
f 78/75/78 71/74/71 51/73/51 49/71/49 
f 71/77/71 73/76/73 53/65/53 51/73/51 
f 69/38/69 79/78/79 70/79/70 
f 79/78/79 46/107/46 45/82/45 70/79/70 
f 45/82/45 48/81/48 75/80/75 70/83/70 
f 48/81/48 50/85/50 77/84/77 75/86/75 
f 50/85/50 52/88/52 72/87/72 77/84/77 
f 52/91/52 54/90/54 74/89/74 72/92/72 
f 80/108/80 81/109/81 82/110/82 83/111/83 
f 82/112/82 81/109/81 79/113/79 
f 79/113/79 69/38/69 82/112/82 
f 46/114/46 79/113/79 81/109/81 
f 55/41/55 46/114/46 81/109/81 58/115/58 
f 82/112/82 69/38/69 32/39/32 
f 32/39/32 83/116/83 82/112/82 
f 20/117/20 84/118/84 85/119/85 16/120/16 
f 19/121/19 86/122/86 84/118/84 20/117/20 
f 24/35/24 18/28/18 15/27/15 
f 19/29/19 21/31/21 62/123/62 59/124/59 
f 19/121/19 59/125/59 61/126/61 86/122/86 
f 57/27/57 58/26/58 87/25/87 88/28/88 
f 65/104/65 63/35/63 88/28/88 
f 86/29/86 89/31/89 87/25/87 84/30/84 
f 90/123/90 89/31/89 86/29/86 61/124/61 
f 24/35/24 91/104/91 18/28/18 
f 20/30/20 16/26/16 17/25/17 
f 88/28/88 63/35/63 57/27/57 
f 87/25/87 58/26/58 84/30/84 
usemtl 22
f 17/127/17 18/128/18 91/129/91 21/130/21 
f 64/131/64 60/132/60 62/133/62 91/129/91 
f 60/132/60 64/131/64 65/134/65 90/135/90 
f 91/129/91 62/133/62 21/130/21 
f 65/134/65 88/136/88 87/137/87 89/138/89 
f 90/135/90 65/134/65 89/138/89 
usemtl 21
f 58/139/58 81/109/81 80/108/80 85/119/85 
f 84/118/84 58/139/58 85/119/85 
f 41/78/92 31/38/92 30/79/30 
f 92/110/93 93/109/94 80/108/80 83/111/83 
f 93/109/94 92/112/93 41/113/41 
f 31/38/31 41/113/41 92/112/93 
f 41/113/41 4/114/4 93/109/94 
f 4/114/4 14/41/14 16/115/16 93/109/94 
f 31/38/31 92/112/93 32/39/32 
f 83/116/83 32/39/32 92/112/93 
f 93/109/94 16/139/16 85/119/85 80/108/80 
f 64/103/64 91/140/91 24/101/24 
f 60/98/60 90/123/90 61/99/61 
f 4/107/4 41/78/41 30/79/30 1/82/1 
# 68 polygons - 47 triangles

