# 3ds Max Wavefront OBJ Exporter v0.97b - (c)2007 guruware
# File Created: 08.03.2017 03:57:54

mtllib f2.mtl

#
# object SpaceFighter02
#

v  -37.0000 -27.4900 129.3000
v  -56.2500 0.0000 34.1500
v  -0.0507 -23.6300 32.8200
v  -13.8600 -23.7200 172.5000
v  -46.8700 -0.0000 -55.7600
v  -0.0507 -10.4300 -56.7900
v  -37.0000 22.2600 125.0000
v  -13.8600 26.0300 168.1000
v  -36.7700 71.9300 27.5500
v  -0.0507 71.9900 27.5500
v  -0.0507 64.5600 -46.7500
v  -30.6400 64.5600 -46.7500
v  -43.2800 -0.9370 146.0000
v  -13.8600 2.8370 189.1000
v  -0.0507 25.0000 -87.4200
v  -30.2900 25.0000 -94.6300
v  -0.0507 49.9700 -82.2800
v  -193.9000 4.4810 -23.4300
v  -193.9000 4.4810 51.4100
v  -185.4000 28.6300 42.4800
v  -65.8100 25.0000 56.1700
v  -136.9000 -2.6980 42.4800
v  -136.9000 -2.6980 -24.1800
v  -56.2500 49.9400 34.1500
v  -141.5000 30.5300 -24.1800
v  -141.5000 30.4900 42.4800
v  -46.8700 49.9700 -55.7600
v  -139.0000 12.6900 64.5100
v  -180.7000 -12.7900 42.4800
v  -180.7000 -12.7900 -24.1800
v  -185.4000 28.6300 -24.1800
v  -174.4000 7.5060 116.8000
v  -156.6000 10.5300 116.8000
v  -26.0600 -0.0000 -85.0400
v  -0.0507 -0.0000 -82.2800
v  -26.0600 49.9700 -85.0400
v  -54.3700 25.0000 -68.1000
v  -139.0000 12.6900 -36.5300
v  -176.2000 7.5900 -59.5300
v  -154.8000 10.4700 -59.5300
v  13.7600 26.0300 168.1000
v  13.7600 2.8370 189.1000
v  13.7600 -23.7200 172.5000
v  56.1500 0.0000 34.1500
v  36.9000 -27.4900 129.3000
v  46.7700 -0.0000 -55.7600
v  36.9000 22.2600 125.0000
v  36.6700 71.9300 27.5500
v  30.5400 64.5600 -46.7500
v  43.1800 -0.9370 146.0000
v  30.1800 25.0000 -94.6300
v  193.8000 4.4810 51.4100
v  193.8000 4.4810 -23.4300
v  185.3000 28.6300 42.4800
v  65.7100 25.0000 56.1700
v  136.8000 -2.6980 42.4800
v  136.8000 -2.6980 -24.1800
v  141.4000 30.5300 -24.1800
v  56.1500 49.9400 34.1500
v  141.4000 30.4900 42.4800
v  46.7700 49.9700 -55.7600
v  138.9000 12.6900 64.5100
v  180.6000 -12.7900 42.4800
v  180.6000 -12.7900 -24.1800
v  185.3000 28.6300 -24.1800
v  174.3000 7.5060 116.8000
v  156.5000 10.5300 116.8000
v  25.9600 -0.0000 -85.0400
v  25.9600 49.9700 -85.0400
v  54.2700 25.0000 -68.1000
v  138.9000 12.6900 -36.5300
v  176.1000 7.5900 -59.5300
v  154.7000 10.4700 -59.5300
# 73 vertices

vn -0.3847 -0.9046 -0.1835
vn 0.1372 -0.9905 0.0129
vn -0.2179 -0.9757 -0.0227
vn -0.3868 -0.9123 -0.1344
vn -0.7027 0.6346 0.3218
vn -0.0016 0.9505 0.3107
vn -0.0016 0.9950 -0.0995
vn 0.0000 0.9951 -0.0987
vn -0.7607 0.4356 0.4811
vn 0.2274 0.1963 -0.9538
vn -0.9433 0.3320 -0.0000
vn -0.8966 -0.4313 0.1004
vn 0.0338 -0.9994 0.0035
vn 0.0300 -0.9996 0.0000
vn -0.2224 0.9750 0.0006
vn -0.2080 0.9779 -0.0214
vn -0.1131 0.7665 0.6322
vn 0.2245 -0.9745 0.0000
vn -0.0432 0.9991 0.0006
vn -0.0423 0.9991 -0.0000
vn -0.8827 0.4012 0.2447
vn 0.9088 -0.2964 0.2936
vn 0.2187 -0.9491 0.2269
vn -0.0410 0.9670 0.2514
vn -0.2181 -0.9636 -0.1550
vn 0.0402 -0.9248 -0.3784
vn 0.0000 0.9250 -0.3799
vn 0.0373 0.9353 -0.3519
vn -0.6477 -0.4845 -0.5879
vn -0.3657 0.4983 -0.7861
vn -0.7342 -0.5435 -0.4068
vn 0.2027 -0.8796 -0.4303
vn -0.0379 0.8751 -0.4824
vn 0.7073 0.4667 -0.5309
vn -0.6984 -0.4921 0.5198
vn -0.8315 -0.2945 0.4711
vn -0.7630 0.5350 0.3628
vn 0.0992 0.3421 -0.9344
vn -0.7945 -0.6072 0.0000
vn -0.9502 -0.2925 0.1077
vn -0.7779 0.5243 0.3465
vn -0.7431 0.5798 0.3341
vn -0.0275 0.6675 0.7441
vn 0.1900 -0.6070 0.7716
vn 0.0867 -0.8128 0.5760
vn -0.7067 -0.6650 0.2415
vn 0.1623 -0.9553 0.2471
vn -0.1602 0.9430 0.2917
vn 0.8234 0.4834 0.2971
vn -0.6476 0.4850 -0.5878
vn -0.7668 0.3392 -0.5450
vn -0.7669 -0.3388 -0.5450
vn -0.3649 0.4948 -0.7887
vn -0.2422 -0.4869 -0.8392
vn -0.2410 -0.6273 -0.7406
vn -0.8682 0.2931 -0.4004
vn -0.1131 0.8406 -0.5297
vn 0.1167 -0.8668 -0.4849
vn 0.7980 -0.3072 -0.5185
vn -0.6491 0.6783 0.3442
vn -0.7578 0.6477 -0.0788
vn -0.6228 0.7718 -0.1279
vn -0.5056 0.7844 -0.3594
vn 0.0992 -0.3417 -0.9346
vn 0.2274 -0.1961 -0.9538
vn 0.0000 0.9505 0.3108
vn 0.0000 0.6712 0.7413
vn 0.0000 -0.5300 0.8480
vn 0.0000 -1.0000 -0.0006
vn 0.3847 -0.9046 -0.1835
vn -0.1372 -0.9905 0.0129
vn 0.2179 -0.9757 -0.0227
vn 0.3868 -0.9123 -0.1344
vn 0.7027 0.6346 0.3218
vn 0.0016 0.9505 0.3107
vn 0.0016 0.9950 -0.0995
vn 0.7607 0.4356 0.4811
vn -0.2275 0.1963 -0.9538
vn 0.9433 0.3320 -0.0000
vn 0.8966 -0.4313 0.1004
vn -0.0338 -0.9994 0.0035
vn -0.0300 -0.9996 0.0000
vn 0.2224 0.9750 0.0006
vn 0.2080 0.9779 -0.0214
vn 0.1131 0.7665 0.6322
vn -0.2245 -0.9745 0.0000
vn 0.0432 0.9991 0.0006
vn 0.0423 0.9991 -0.0000
vn 0.8827 0.4012 0.2447
vn -0.9088 -0.2964 0.2936
vn -0.2187 -0.9491 0.2269
vn 0.0410 0.9670 0.2514
vn 0.2181 -0.9636 -0.1550
vn -0.0402 -0.9248 -0.3784
vn -0.0373 0.9353 -0.3519
vn 0.6476 -0.4845 -0.5881
vn 0.3657 0.4983 -0.7861
vn 0.7342 -0.5435 -0.4068
vn -0.2027 -0.8796 -0.4303
vn 0.0379 0.8751 -0.4824
vn -0.7073 0.4667 -0.5309
vn 0.6984 -0.4921 0.5198
vn 0.8315 -0.2945 0.4711
vn 0.7630 0.5350 0.3628
vn -0.0992 0.3421 -0.9344
vn 0.7945 -0.6072 0.0000
vn 0.9502 -0.2925 0.1077
vn 0.7779 0.5243 0.3465
vn 0.7431 0.5798 0.3341
vn 0.0275 0.6675 0.7441
vn -0.1900 -0.6070 0.7716
vn -0.0867 -0.8128 0.5760
vn 0.7067 -0.6650 0.2415
vn -0.1623 -0.9553 0.2471
vn 0.1602 0.9430 0.2917
vn -0.8234 0.4834 0.2971
vn 0.6474 0.4850 -0.5879
vn 0.7669 0.3389 -0.5450
vn 0.7670 -0.3386 -0.5451
vn 0.3649 0.4948 -0.7887
vn 0.2422 -0.4869 -0.8392
vn 0.2410 -0.6273 -0.7406
vn 0.8682 0.2931 -0.4004
vn 0.1131 0.8406 -0.5297
vn -0.1167 -0.8668 -0.4849
vn -0.7980 -0.3072 -0.5185
vn 0.6491 0.6783 0.3442
vn 0.7578 0.6477 -0.0788
vn 0.6228 0.7718 -0.1279
vn 0.5056 0.7844 -0.3594
vn -0.0992 -0.3418 -0.9345
vn -0.2275 -0.1961 -0.9538
# 132 vertex normals

vt 0.6228 0.2267 0.0000
vt 0.6147 0.5296 0.0000
vt 0.8950 0.5554 0.0000
vt 0.8253 0.2458 0.0000
vt 0.6474 0.8469 0.0000
vt 0.8950 0.8606 0.0000
vt 0.6228 0.2415 0.0000
vt 0.7933 0.0946 0.0000
vt 0.7301 0.5733 0.0000
vt 0.8950 0.5733 0.0000
vt 0.8950 0.8264 0.0000
vt 0.7576 0.8264 0.0000
vt 0.5304 0.1617 0.0000
vt 0.7683 0.0005 0.0000
vt 0.8945 0.9984 0.0000
vt 0.7387 0.9995 0.0000
vt 0.8949 0.9161 0.0000
vt 0.0005 0.7468 0.0000
vt 0.0005 0.4918 0.0000
vt 0.0800 0.5220 0.0000
vt 0.5176 0.4373 0.0000
vt 0.2446 0.5220 0.0000
vt 0.2446 0.7490 0.0000
vt 0.2446 0.7493 0.0000
vt 0.2446 0.5222 0.0000
vt 0.3101 0.4378 0.0000
vt 0.0782 0.5222 0.0000
vt 0.0782 0.7493 0.0000
vt 0.0800 0.7490 0.0000
vt 0.0784 0.2693 0.0000
vt 0.2251 0.2693 0.0000
vt 0.7543 0.9115 0.0000
vt 0.6035 0.9242 0.0000
vt 0.3233 0.8567 0.0000
vt 0.0845 0.9292 0.0000
vt 0.2226 0.9292 0.0000
vt 0.9968 0.0946 0.0000
vt 0.9995 0.0029 0.0000
vt 0.9648 0.2458 0.0000
# 39 texture coords

g SpaceFighter02
usemtl VMtl01
s 1
f 1/1/1 2/2/1 3/3/1 
f 3/3/2 4/4/2 1/1/2 
f 2/2/3 5/5/3 6/6/3 
f 6/6/4 3/3/4 2/2/4 
f 7/7/5 8/8/5 9/9/5 
f 10/10/6 9/9/6 8/8/6 
f 9/9/7 10/10/7 11/11/7 
f 11/11/8 12/12/8 9/9/8 
f 13/13/9 14/14/9 8/8/9 
f 15/15/10 16/16/10 17/17/10 
f 18/18/11 19/19/11 20/20/11 
f 13/13/12 21/21/12 2/2/12 
f 5/5/13 2/2/13 22/22/13 
f 22/22/14 23/23/14 5/5/14 
f 24/2/15 25/24/15 26/25/15 
f 25/24/16 24/2/16 27/5/16 
f 26/25/17 28/26/17 24/2/17 
f 23/23/18 22/22/18 29/27/18 
f 29/27/18 30/28/18 23/23/18 
f 26/25/19 25/24/19 31/29/19 
f 31/29/20 20/20/20 26/25/20 
f 20/20/21 19/19/21 32/30/21 
f 22/22/22 28/26/22 33/31/22 
f 29/27/23 22/22/23 33/31/23 
f 26/25/24 20/20/24 33/31/24 
f 6/6/25 5/5/25 34/32/25 
f 34/32/26 35/17/26 6/6/26 
f 12/12/27 11/11/27 17/17/27 
f 17/17/28 36/32/28 12/12/28 
f 5/5/29 37/33/29 16/16/29 
f 27/5/30 37/33/30 38/34/30 
f 30/28/31 18/18/31 39/35/31 
f 23/23/32 30/28/32 40/36/32 
f 31/29/33 25/24/33 40/36/33 
f 25/24/34 38/34/34 40/36/34 
f 13/13/35 1/1/35 14/14/35 
f 1/1/36 4/4/36 14/14/36 
f 8/8/37 7/7/37 13/13/37 
f 36/32/38 17/17/38 16/16/38 
f 18/18/39 30/28/39 19/19/39 
f 30/28/39 29/27/39 19/19/39 
f 20/20/11 31/29/11 18/18/11 
f 2/2/40 1/1/40 13/13/40 
f 13/13/41 7/7/41 21/21/41 
f 7/7/42 24/2/42 21/21/42 
f 24/2/43 28/26/43 21/21/43 
f 28/26/44 2/2/44 21/21/44 
f 22/22/45 2/2/45 28/26/45 
f 19/19/46 29/27/46 32/30/46 
f 29/27/47 33/31/47 32/30/47 
f 33/31/48 20/20/48 32/30/48 
f 28/26/49 26/25/49 33/31/49 
f 37/33/50 27/5/50 16/16/50 
f 27/5/51 36/32/51 16/16/51 
f 34/32/52 5/5/52 16/16/52 
f 25/24/53 27/5/53 38/34/53 
f 37/33/54 5/5/54 38/34/54 
f 5/5/55 23/23/55 38/34/55 
f 18/18/56 31/29/56 39/35/56 
f 31/29/57 40/36/57 39/35/57 
f 40/36/58 30/28/58 39/35/58 
f 38/34/59 23/23/59 40/36/59 
f 7/7/60 9/9/60 24/2/60 
f 27/5/61 24/2/61 9/9/61 
f 9/9/62 12/12/62 27/5/62 
f 36/32/63 27/5/63 12/12/63 
f 34/32/64 16/16/64 35/17/64 
f 16/16/65 15/15/65 35/17/65 
f 41/37/66 10/10/66 8/8/66 
f 14/14/67 41/37/67 8/8/67 
f 42/38/67 41/37/67 14/14/67 
f 43/39/68 42/38/68 14/14/68 
f 4/4/68 43/39/68 14/14/68 
f 3/3/69 43/39/69 4/4/69 
f 44/2/70 45/1/70 3/3/70 
f 43/4/71 3/3/71 45/1/71 
f 46/5/72 44/2/72 6/6/72 
f 3/3/73 6/6/73 44/2/73 
f 41/8/74 47/7/74 48/9/74 
f 48/9/75 10/10/75 41/8/75 
f 10/10/76 48/9/76 11/11/76 
f 49/12/8 11/11/8 48/9/8 
f 42/14/77 50/13/77 41/8/77 
f 51/16/78 15/15/78 17/17/78 
f 52/19/79 53/18/79 54/20/79 
f 55/21/80 50/13/80 44/2/80 
f 44/2/81 46/5/81 56/22/81 
f 57/23/82 56/22/82 46/5/82 
f 58/24/83 59/2/83 60/25/83 
f 59/2/84 58/24/84 61/5/84 
f 62/26/85 60/25/85 59/2/85 
f 56/22/86 57/23/86 63/27/86 
f 64/28/86 63/27/86 57/23/86 
f 58/24/87 60/25/87 65/29/87 
f 54/20/88 65/29/88 60/25/88 
f 52/19/89 54/20/89 66/30/89 
f 62/26/90 56/22/90 67/31/90 
f 56/22/91 63/27/91 67/31/91 
f 54/20/92 60/25/92 67/31/92 
f 46/5/93 6/6/93 68/32/93 
f 35/17/94 68/32/94 6/6/94 
f 11/11/27 49/12/27 17/17/27 
f 69/32/95 17/17/95 49/12/95 
f 70/33/96 46/5/96 51/16/96 
f 70/33/97 61/5/97 71/34/97 
f 53/18/98 64/28/98 72/35/98 
f 64/28/99 57/23/99 73/36/99 
f 58/24/100 65/29/100 73/36/100 
f 71/34/101 58/24/101 73/36/101 
f 45/1/102 50/13/102 42/14/102 
f 43/4/103 45/1/103 42/14/103 
f 47/7/104 41/8/104 50/13/104 
f 17/17/105 69/32/105 51/16/105 
f 64/28/106 53/18/106 52/19/106 
f 63/27/106 64/28/106 52/19/106 
f 65/29/79 54/20/79 53/18/79 
f 45/1/107 44/2/107 50/13/107 
f 47/7/108 50/13/108 55/21/108 
f 59/2/109 47/7/109 55/21/109 
f 62/26/110 59/2/110 55/21/110 
f 44/2/111 62/26/111 55/21/111 
f 44/2/112 56/22/112 62/26/112 
f 63/27/113 52/19/113 66/30/113 
f 67/31/114 63/27/114 66/30/114 
f 54/20/115 67/31/115 66/30/115 
f 60/25/116 62/26/116 67/31/116 
f 61/5/117 70/33/117 51/16/117 
f 69/32/118 61/5/118 51/16/118 
f 46/5/119 68/32/119 51/16/119 
f 61/5/120 58/24/120 71/34/120 
f 46/5/121 70/33/121 71/34/121 
f 57/23/122 46/5/122 71/34/122 
f 65/29/123 53/18/123 72/35/123 
f 73/36/124 65/29/124 72/35/124 
f 64/28/125 73/36/125 72/35/125 
f 57/23/126 71/34/126 73/36/126 
f 48/9/127 47/7/127 59/2/127 
f 59/2/128 61/5/128 48/9/128 
f 49/12/129 48/9/129 61/5/129 
f 61/5/130 69/32/130 49/12/130 
f 51/16/131 68/32/131 35/17/131 
f 15/15/132 51/16/132 35/17/132 
# 0 polygons - 142 triangles

