# Blender v2.78 (sub 0) OBJ File: 'missile.blend'
# www.blender.org
mtllib missile.mtl
o Cylinder.001_Cylinder.004
v 0.733508 0.552007 0.056211
v 0.733508 0.552007 -0.056211
v 1.578898 0.552007 0.056211
v 1.578898 0.976114 0.056211
v 1.578898 0.552007 -0.056211
v 1.578898 0.976114 -0.056211
v 1.320928 0.552007 -0.056211
v 1.320928 0.976109 -0.056211
v 1.320928 0.552007 0.056211
v 1.320928 0.976109 0.056211
v 1.774944 -0.230939 -0.557945
v -1.625096 -0.230939 -0.557945
v 1.774944 0.231228 -0.557825
v -1.625096 0.231228 -0.557825
v 1.774944 0.557945 -0.230939
v -1.625096 0.557945 -0.230939
v 1.774944 0.557825 0.231228
v -1.625096 0.557825 0.231228
v 1.774944 0.230939 0.557945
v -1.625096 0.230939 0.557945
v 1.774944 -0.231228 0.557825
v -1.625096 -0.231228 0.557825
v 1.774944 -0.557945 0.230939
v -1.625097 -0.557945 0.230939
v 1.774944 -0.557825 -0.231228
v -1.625096 -0.557825 -0.231228
v -2.029201 0.176108 -0.424850
v -2.029201 -0.175887 -0.424941
v -2.029201 0.424941 -0.175887
v -2.029201 0.424850 0.176108
v -2.029201 0.175887 0.424941
v -2.029201 -0.176108 0.424850
v -2.029201 -0.424941 0.175887
v -2.029201 -0.424850 -0.176108
v -2.285779 0.078046 -0.188281
v -2.285779 -0.077948 -0.188321
v -2.285779 0.188321 -0.077948
v -2.285779 0.188281 0.078046
v -2.285779 0.077948 0.188321
v -2.285779 -0.078046 0.188281
v -2.285779 -0.188321 0.077948
v -2.285779 -0.188281 -0.078046
v -2.342978 0.000000 0.000000
v 1.961142 -0.170795 -0.412638
v 1.961142 0.171009 -0.412549
v 1.961142 0.412638 -0.170795
v 1.961142 0.412549 0.171009
v 1.961142 0.170795 0.412638
v 1.961142 -0.171009 0.412549
v 1.961142 -0.412638 0.170795
v 1.961142 -0.412549 -0.171009
v 1.961142 -0.000000 -0.000000
v 0.733508 -0.324684 0.449947
v 0.733508 -0.227324 0.506158
v 1.578898 -0.324684 0.449947
v 1.578898 -0.536737 0.817234
v 1.578898 -0.227324 0.506158
v 1.578898 -0.439377 0.873445
v 1.320928 -0.227324 0.506158
v 1.320928 -0.439375 0.873441
v 1.320928 -0.324684 0.449947
v 1.320928 -0.536735 0.817230
v 0.733508 -0.162483 -0.550000
v 0.733508 -0.259843 -0.493790
v 1.578898 -0.162483 -0.550000
v 1.578898 -0.374536 -0.917288
v 1.578898 -0.259843 -0.493790
v 1.578898 -0.471896 -0.861077
v 1.320928 -0.259843 -0.493790
v 1.320928 -0.471893 -0.861073
v 1.320928 -0.162483 -0.550000
v 1.320928 -0.374534 -0.917284
vt 0.7490 0.9673
vt 0.7490 0.8834
vt 0.8000 0.8834
vt 0.8000 0.9673
vt 0.8839 0.8834
vt 0.8000 0.8611
vt 0.8839 0.8611
vt 0.7490 0.7772
vt 0.7490 0.8611
vt 0.6327 0.7772
vt 0.6056 0.8834
vt 0.6056 0.8611
vt 0.8000 0.7772
vt 0.6327 0.9673
vt 0.9578 0.6561
vt 0.9578 0.7237
vt 0.8762 0.6899
vt 0.8423 0.6082
vt 0.9100 0.6082
vt 0.7945 0.7237
vt 0.7945 0.6561
vt 0.9100 0.7715
vt 0.8423 0.7715
vt 0.1914 0.9673
vt 0.1914 0.8834
vt 0.2425 0.8834
vt 0.2425 0.9673
vt 0.3264 0.8834
vt 0.2425 0.8611
vt 0.3264 0.8611
vt 0.1914 0.7772
vt 0.1914 0.8611
vt 0.0752 0.7772
vt 0.0481 0.8834
vt 0.0481 0.8611
vt 0.2425 0.7772
vt 0.0752 0.9673
vt 0.4702 0.9673
vt 0.4702 0.8834
vt 0.5212 0.8834
vt 0.5212 0.9673
vt 0.6052 0.8834
vt 0.5212 0.8611
vt 0.6052 0.8611
vt 0.4702 0.7772
vt 0.4702 0.8611
vt 0.3540 0.7772
vt 0.3268 0.8834
vt 0.3268 0.8611
vt 0.5212 0.7772
vt 0.3540 0.9673
vt 0.6730 0.1831
vt 0.0002 0.1831
vt 0.0002 0.0917
vt 0.6730 0.0917
vt 0.0002 0.0002
vt 0.6730 0.0002
vt 0.6730 0.7318
vt 0.0002 0.7318
vt 0.0002 0.6404
vt 0.6730 0.6404
vt 0.0002 0.5489
vt 0.6730 0.5489
vt 0.0002 0.4575
vt 0.6730 0.4575
vt 0.0002 0.3660
vt 0.6730 0.3660
vt 0.7840 0.0148
vt 0.9003 0.0148
vt 0.8712 0.0958
vt 0.8207 0.0927
vt 0.0002 0.2746
vt 0.6730 0.2746
vt 0.7976 0.5708
vt 0.7237 0.4979
vt 0.7706 0.4757
vt 0.8156 0.5220
vt 0.8636 0.2178
vt 0.8131 0.2147
vt 0.8309 0.1747
vt 0.8479 0.1770
vt 0.7840 0.2957
vt 0.7017 0.2134
vt 0.7796 0.1767
vt 0.7017 0.0971
vt 0.7827 0.1262
vt 0.9003 0.2957
vt 0.9826 0.0971
vt 0.9047 0.1338
vt 0.9826 0.2134
vt 0.9016 0.1843
vt 0.8227 0.1440
vt 0.8363 0.1335
vt 0.8421 0.1552
vt 0.8204 0.1610
vt 0.8534 0.1358
vt 0.8616 0.1665
vt 0.8639 0.1494
vt 0.7957 0.3215
vt 0.8995 0.3223
vt 0.8813 0.3711
vt 0.8169 0.3687
vt 0.9750 0.4978
vt 0.9015 0.5708
vt 0.8801 0.5235
vt 0.9265 0.4801
vt 0.7223 0.3946
vt 0.7708 0.4121
vt 0.9736 0.3944
vt 0.9269 0.4168
vn -0.0000 0.0000 -1.0000
vn 1.0000 0.0000 0.0000
vn 0.0000 0.0000 1.0000
vn -0.5854 0.8108 0.0000
vn -0.0000 1.0000 0.0000
vn 0.0000 0.8660 0.5000
vn 0.0000 -0.8660 -0.5000
vn -0.5854 -0.4054 0.7022
vn -0.0000 -0.5000 0.8660
vn 0.0000 -0.8660 0.5000
vn 0.0000 0.8660 -0.5000
vn -0.5854 -0.4054 -0.7022
vn -0.0000 -0.5000 -0.8660
vn 0.3191 -0.3624 -0.8756
vn -0.1637 -0.3773 -0.9115
vn -0.1637 0.3778 -0.9113
vn 0.3191 0.3629 -0.8755
vn -0.1637 0.9115 -0.3773
vn 0.3191 0.8756 -0.3624
vn -0.1637 0.9113 0.3778
vn 0.3191 0.8755 0.3629
vn -0.1637 0.3773 0.9115
vn 0.3191 0.3624 0.8756
vn -0.1637 -0.3778 0.9113
vn 0.3191 -0.3629 0.8755
vn -0.1637 -0.9115 0.3773
vn 0.3191 -0.8756 0.3624
vn -0.5110 0.7942 -0.3287
vn -0.5110 0.7940 0.3291
vn -0.1637 -0.9113 -0.3777
vn 0.3191 -0.8755 -0.3629
vn 0.8661 0.1911 0.4617
vn 0.8661 0.4617 0.1914
vn -0.5110 -0.7940 -0.3291
vn -0.5110 -0.7942 0.3287
vn -0.8355 -0.5077 0.2101
vn -0.8355 -0.5076 -0.2104
vn -0.5110 -0.3291 0.7940
vn -0.5110 0.3287 0.7942
vn -0.5110 0.3291 -0.7940
vn -0.5110 -0.3287 -0.7942
vn -0.8355 0.2101 0.5077
vn -0.8355 0.5076 0.2104
vn -1.0000 0.0000 0.0000
vn -0.8355 -0.2104 0.5076
vn -0.8355 0.5077 -0.2101
vn -0.8355 -0.2101 -0.5077
vn -0.8355 0.2104 -0.5076
vn 0.8661 -0.4617 -0.1914
vn 0.8661 -0.4617 0.1911
vn 0.8661 0.4617 -0.1911
vn 0.8661 0.1914 -0.4617
vn 0.8661 -0.1914 0.4617
vn 0.8661 -0.1911 -0.4617
usemtl Material.001
s off
f 7/1/1 8/2/1 6/3/1 5/4/1
f 5/5/2 6/3/2 4/6/2 3/7/2
f 9/8/3 10/9/3 1/10/3
f 8/2/4 2/11/4 1/12/4 10/9/4
f 6/3/5 8/2/5 10/9/5 4/6/5
f 3/13/3 4/6/3 10/9/3 9/8/3
f 2/14/1 8/2/1 7/1/1
f 51/15/2 44/16/2 52/17/2
f 49/18/2 50/19/2 52/17/2
f 47/20/2 48/21/2 52/17/2
f 45/22/2 46/23/2 52/17/2
f 50/19/2 51/15/2 52/17/2
f 48/21/2 49/18/2 52/17/2
f 46/23/2 47/20/2 52/17/2
f 44/16/2 45/22/2 52/17/2
f 59/24/6 60/25/6 58/26/6 57/27/6
f 57/28/2 58/26/2 56/29/2 55/30/2
f 61/31/7 62/32/7 53/33/7
f 60/25/8 54/34/8 53/35/8 62/32/8
f 58/26/9 60/25/9 62/32/9 56/29/9
f 55/36/7 56/29/7 62/32/7 61/31/7
f 54/37/6 60/25/6 59/24/6
f 69/38/10 70/39/10 68/40/10 67/41/10
f 67/42/2 68/40/2 66/43/2 65/44/2
f 71/45/11 72/46/11 63/47/11
f 70/39/12 64/48/12 63/49/12 72/46/12
f 68/40/13 70/39/13 72/46/13 66/43/13
f 65/50/11 66/43/11 72/46/11 71/45/11
f 64/51/10 70/39/10 69/38/10
s 1
f 11/52/14 12/53/15 14/54/16 13/55/17
f 13/55/17 14/54/16 16/56/18 15/57/19
f 15/58/19 16/59/18 18/60/20 17/61/21
f 17/61/21 18/60/20 20/62/22 19/63/23
f 19/63/23 20/62/22 22/64/24 21/65/25
f 21/65/25 22/64/24 24/66/26 23/67/27
f 18/68/20 16/69/18 29/70/28 30/71/29
f 23/67/27 24/66/26 26/72/30 25/73/31
f 25/73/31 26/72/30 12/53/15 11/52/14
f 17/74/21 19/75/23 48/76/32 47/77/33
f 34/78/34 33/79/35 41/80/36 42/81/37
f 24/82/26 22/83/24 32/84/38 33/79/35
f 20/85/22 18/68/20 30/71/29 31/86/39
f 26/87/30 24/82/26 33/79/35 34/78/34
f 16/69/18 14/88/16 27/89/40 29/70/28
f 22/83/24 20/85/22 31/86/39 32/84/38
f 12/90/15 26/87/30 34/78/34 28/91/41
f 14/88/16 12/90/15 28/91/41 27/89/40
f 39/92/42 38/93/43 43/94/44
f 32/84/38 31/86/39 39/92/42 40/95/45
f 30/71/29 29/70/28 37/96/46 38/93/43
f 27/89/40 28/91/41 36/97/47 35/98/48
f 28/91/41 34/78/34 42/81/37 36/97/47
f 33/79/35 32/84/38 40/95/45 41/80/36
f 31/86/39 30/71/29 38/93/43 39/92/42
f 29/70/28 27/89/40 35/98/48 37/96/46
f 37/96/46 35/98/48 43/94/44
f 42/81/37 41/80/36 43/94/44
f 40/95/45 39/92/42 43/94/44
f 38/93/43 37/96/46 43/94/44
f 35/98/48 36/97/47 43/94/44
f 36/97/47 42/81/37 43/94/44
f 41/80/36 40/95/45 43/94/44
f 23/99/27 25/100/31 51/101/49 50/102/50
f 13/103/17 15/104/19 46/105/51 45/106/52
f 19/75/23 21/107/25 49/108/53 48/76/32
f 25/100/31 11/109/14 44/110/54 51/101/49
f 11/109/14 13/103/17 45/106/52 44/110/54
f 15/104/19 17/74/21 47/77/33 46/105/51
f 21/107/25 23/99/27 50/102/50 49/108/53
