# 3ds Max Wavefront OBJ Exporter v0.97b - (c)2007 guruware
# File Created: 08.03.2017 04:01:53

mtllib s2.mtl

#
# object Shuttle02
#

v  -29.5101 -77.3599 229.8000
v  -56.3701 -72.2200 66.6000
v  56.3599 -72.2200 66.6000
v  29.5199 -77.3599 229.8000
v  -68.2201 -62.2200 -149.5400
v  68.2099 -62.2200 -149.5400
v  -0.0001 -49.0610 -257.2000
v  170.2999 -7.1800 -261.2999
v  164.0999 -40.4540 -261.2999
v  103.0999 33.3999 -259.1000
v  -0.0001 50.5299 -256.8000
v  29.5199 -59.4399 261.2999
v  -29.5101 -59.4399 261.2999
v  88.5399 -35.9970 191.5999
v  80.4999 -56.6100 188.4999
v  -30.3201 22.6700 184.2000
v  30.6199 23.0000 184.4999
v  56.3599 62.4100 32.6000
v  -56.3701 62.4100 32.6000
v  38.2699 77.3100 -101.0900
v  -38.1801 77.3100 -101.0900
v  -68.2201 61.4100 -156.3000
v  68.2099 61.4100 -156.3000
v  40.8499 -17.7600 236.9999
v  -41.3501 -17.5999 237.0999
v  73.7499 26.6000 109.2999
v  95.0199 38.7100 52.6000
v  98.2199 39.6900 -101.9300
v  86.8299 -5.2200 125.2000
v  116.6999 5.8300 50.8000
v  121.4999 -0.4800 -47.3600
v  191.5999 -1.4600 -158.0200
v  162.5999 20.0300 -155.8100
v  122.5999 -35.7430 50.8000
v  126.5999 -33.9320 -47.1500
v  191.4999 -20.9700 -157.8100
v  95.0199 -59.3700 56.5000
v  -170.3001 -7.1800 -261.2999
v  -164.1001 -40.4540 -261.2999
v  -103.1001 33.3999 -259.1000
v  -88.5401 -35.9970 191.5999
v  -80.4901 -56.6100 188.4999
v  -74.2001 26.7600 109.3999
v  -95.0201 38.7100 52.6000
v  -98.2201 39.6900 -101.9300
v  -116.7001 5.8300 50.8000
v  -86.5801 -5.5500 124.8999
v  -121.5001 -0.4800 -47.3600
v  -191.6001 -1.4600 -158.0200
v  -162.6001 20.0300 -155.8100
v  -122.6001 -35.7430 50.8000
v  -126.6001 -33.9320 -47.1500
v  -191.5001 -20.9700 -157.8100
v  -95.0201 -59.3700 56.5000
# 54 vertices

vn 0.0000 -0.9995 -0.0315
vn 0.0000 -0.9989 -0.0462
vn 0.0000 -0.9926 -0.1213
vn -0.0252 0.0047 -0.9997
vn -0.0266 0.0102 -0.9996
vn -0.0216 0.0040 -0.9998
vn 0.0000 -0.8692 0.4945
vn 0.6807 -0.6367 0.3622
vn 0.6714 -0.3593 0.6482
vn -0.0065 0.9682 0.2501
vn 0.0000 0.9673 0.2536
vn 0.0000 0.9938 0.1108
vn 0.0000 0.9942 -0.1076
vn 0.0000 0.5037 0.8639
vn 0.0020 0.5011 0.8654
vn 0.0023 0.7901 0.6130
vn -0.0073 0.7964 0.6047
vn 0.0000 0.9609 -0.2767
vn 0.5076 0.8611 0.0273
vn 0.5943 0.7115 0.3749
vn 0.3853 0.8752 0.2924
vn 0.5165 0.8561 0.0161
vn 0.5497 0.8348 0.0301
vn 0.6019 0.7984 -0.0133
vn 0.1557 0.9652 -0.2102
vn 0.7758 0.5067 0.3759
vn 0.6322 0.6668 0.3945
vn 0.7796 0.4929 0.3862
vn 0.7630 0.5113 0.3954
vn 0.8597 0.5107 0.0092
vn 0.8352 0.5496 0.0208
vn 0.5073 0.8483 -0.1516
vn 0.5689 0.7909 -0.2253
vn 0.5415 0.7705 0.3362
vn 0.5628 0.7173 0.4108
vn 0.1313 0.9007 0.4141
vn 0.9256 -0.0317 0.3771
vn 0.9628 0.1366 0.2331
vn 0.5587 0.7578 0.3369
vn 0.9876 0.1508 0.0431
vn 0.9893 0.1404 0.0394
vn 0.9589 -0.1787 -0.2202
vn 0.9794 -0.0072 -0.2016
vn 0.8481 0.1325 0.5129
vn 0.8448 0.0014 0.5351
vn 0.3207 -0.9469 0.0229
vn 0.4211 -0.9047 0.0652
vn 0.4585 -0.8886 -0.0160
vn 0.2767 -0.9494 -0.1487
vn 0.0480 -0.9874 -0.1511
vn 0.3121 -0.9464 0.0835
vn 0.3364 -0.9376 0.0875
vn 0.8981 -0.3829 0.2166
vn 0.6585 -0.7474 0.0881
vn 0.6520 -0.7581 0.0126
vn 0.2687 0.9627 -0.0302
vn 0.0252 0.0047 -0.9997
vn 0.0266 0.0102 -0.9996
vn 0.0216 0.0040 -0.9998
vn -0.6806 -0.6368 0.3623
vn -0.6714 -0.3596 0.6480
vn -0.5062 0.8620 0.0272
vn -0.5393 0.7622 0.3580
vn -0.3837 0.8750 0.2953
vn -0.5166 0.8561 0.0161
vn -0.5498 0.8347 0.0301
vn -0.6020 0.7984 -0.0133
vn -0.1557 0.9652 -0.2102
vn -0.7779 0.4915 0.3917
vn -0.7823 0.4864 0.3891
vn -0.8597 0.5107 0.0092
vn -0.8352 0.5496 0.0208
vn -0.5073 0.8483 -0.1516
vn -0.5689 0.7909 -0.2253
vn -0.5415 0.7705 0.3362
vn -0.5628 0.7173 0.4108
vn -0.1239 0.9041 0.4090
vn -0.9282 -0.0493 0.3689
vn -0.9628 0.1366 0.2331
vn -0.5373 0.7731 0.3371
vn -0.9876 0.1508 0.0431
vn -0.9893 0.1404 0.0394
vn -0.9589 -0.1787 -0.2202
vn -0.9794 -0.0072 -0.2016
vn -0.8481 0.1325 0.5129
vn -0.8448 0.0014 0.5351
vn -0.3208 -0.9469 0.0230
vn -0.4211 -0.9047 0.0653
vn -0.4585 -0.8885 -0.0160
vn -0.2768 -0.9494 -0.1487
vn -0.0480 -0.9874 -0.1511
vn -0.3121 -0.9464 0.0835
vn -0.3364 -0.9376 0.0875
vn -0.8979 -0.3832 0.2165
vn -0.6585 -0.7474 0.0881
vn -0.6520 -0.7581 0.0126
vn -0.2687 0.9627 -0.0302
vn -0.7933 0.4822 0.3716
vn -0.6101 0.6866 0.3954
# 99 vertex normals

vt 0.9950 0.0886 0.0000
vt 0.9924 0.5168 0.0000
vt 0.8562 0.5168 0.0000
vt 0.8670 0.0886 0.0000
vt 0.9917 0.8330 0.0000
vt 0.8535 0.8330 0.0000
vt 0.9995 0.9921 0.0000
vt 0.3470 0.0951 0.0000
vt 0.3968 0.2698 0.0000
vt 0.3305 0.2511 0.0000
vt 0.5227 0.2289 0.0000
vt 0.5816 0.1400 0.0000
vt 0.2074 0.1025 0.0000
vt 0.1781 0.0184 0.0000
vt 0.2860 0.0005 0.0000
vt 0.3144 0.0819 0.0000
vt 0.2367 0.2187 0.0000
vt 0.3025 0.1909 0.0000
vt 0.0547 0.2877 0.0000
vt 0.2198 0.2877 0.0000
vt 0.2932 0.5271 0.0000
vt 0.0005 0.5271 0.0000
vt 0.0113 0.5269 0.0000
vt 0.2920 0.5269 0.0000
vt 0.2279 0.7447 0.0000
vt 0.0726 0.7447 0.0000
vt 0.0165 0.8408 0.0000
vt 0.2920 0.8408 0.0000
vt 0.1439 0.9952 0.0000
vt 0.0813 0.1028 0.0000
vt 0.2065 0.1028 0.0000
vt 0.2357 0.2183 0.0000
vt 0.0483 0.2183 0.0000
vt 0.0311 0.2140 0.0000
vt 0.2510 0.2140 0.0000
vt 0.3611 0.4492 0.0000
vt 0.4044 0.5362 0.0000
vt 0.3781 0.8019 0.0000
vt 0.3088 0.9992 0.0000
vt 0.4429 0.2599 0.0000
vt 0.4437 0.4773 0.0000
vt 0.3716 0.4861 0.0000
vt 0.3564 0.3360 0.0000
vt 0.5683 0.4268 0.0000
vt 0.5686 0.5363 0.0000
vt 0.4112 0.5363 0.0000
vt 0.4580 0.4451 0.0000
vt 0.5567 0.8021 0.0000
vt 0.3852 0.8021 0.0000
vt 0.5869 0.8479 0.0000
vt 0.5854 0.9994 0.0000
vt 0.3091 0.9994 0.0000
vt 0.4222 0.8479 0.0000
vt 0.4278 0.8479 0.0000
vt 0.6659 0.0975 0.0000
vt 0.6661 0.1809 0.0000
vt 0.5737 0.4255 0.0000
vt 0.5754 0.2220 0.0000
vt 0.6682 0.5353 0.0000
vt 0.5757 0.5355 0.0000
vt 0.6567 0.8018 0.0000
vt 0.5581 0.8022 0.0000
vt 0.6876 0.8476 0.0000
vt 0.6876 0.9995 0.0000
vt 0.5910 0.9995 0.0000
vt 0.5926 0.8480 0.0000
vt 0.8549 0.0886 0.0000
vt 0.8441 0.5168 0.0000
vt 0.7743 0.5225 0.0000
vt 0.7908 0.1708 0.0000
vt 0.8414 0.8330 0.0000
vt 0.7409 0.8015 0.0000
vt 0.9874 0.9921 0.0000
vt 0.7892 0.9992 0.0000
vt 0.7016 0.8474 0.0000
vt 0.6716 0.5338 0.0000
vt 0.6718 0.1855 0.0000
vt 0.7841 0.1713 0.0000
vt 0.7684 0.5230 0.0000
vt 0.6604 0.8020 0.0000
vt 0.4213 0.8477 0.0000
# 81 texture coords

g Shuttle02
usemtl VMtl01
s 1
f 1/1/1 2/2/1 3/3/1 
f 3/3/1 4/4/1 1/1/1 
f 2/2/2 5/5/2 6/6/2 
f 6/6/2 3/3/2 2/2/2 
f 7/7/3 6/6/3 5/5/3 
f 7/8/4 8/9/4 9/10/4 
f 10/11/5 8/9/5 7/8/5 
f 11/12/6 10/11/6 7/8/6 
f 12/13/7 13/14/7 1/15/7 
f 1/15/7 4/16/7 12/13/7 
f 14/17/8 12/13/8 4/16/8 
f 4/16/9 15/18/9 14/17/9 
f 16/19/10 17/20/10 18/21/10 
f 18/21/11 19/22/11 16/19/11 
f 19/23/12 18/24/12 20/25/12 
f 20/25/12 21/26/12 19/23/12 
f 22/27/13 23/28/13 11/29/13 
f 13/30/14 12/31/14 24/32/14 
f 24/32/15 25/33/15 13/30/15 
f 25/34/16 24/35/16 17/20/16 
f 17/20/17 16/19/17 25/34/17 
f 23/28/18 22/27/18 21/26/18 
f 21/26/18 20/25/18 23/28/18 
f 18/21/19 23/28/19 20/25/19 
f 17/20/20 26/36/20 27/37/20 
f 27/37/21 18/21/21 17/20/21 
f 18/21/22 27/37/22 28/38/22 
f 28/38/23 23/28/23 18/21/23 
f 23/28/24 28/38/24 10/39/24 
f 10/39/25 11/29/25 23/28/25 
f 24/40/26 29/41/26 26/42/26 
f 26/42/27 17/43/27 24/40/27 
f 29/44/28 30/45/28 27/46/28 
f 27/46/29 26/47/29 29/44/29 
f 30/45/30 31/48/30 28/49/30 
f 28/49/31 27/46/31 30/45/31 
f 32/50/32 8/51/32 10/52/32 
f 10/52/33 33/53/33 32/50/33 
f 28/49/34 31/48/34 32/50/34 
f 32/50/35 33/54/35 28/49/35 
f 12/55/36 14/56/36 29/57/36 
f 29/57/37 24/58/37 12/55/37 
f 14/56/38 34/59/38 30/60/38 
f 30/60/39 29/57/39 14/56/39 
f 34/59/40 35/61/40 31/62/40 
f 31/62/41 30/60/41 34/59/41 
f 36/63/42 9/64/42 8/65/42 
f 8/65/43 32/66/43 36/63/43 
f 31/62/44 35/61/44 36/63/44 
f 36/63/45 32/66/45 31/62/45 
f 4/67/46 3/68/46 37/69/46 
f 37/69/47 15/70/47 4/67/47 
f 3/68/48 6/71/48 35/72/48 
f 35/72/49 37/69/49 3/68/49 
f 6/71/50 7/73/50 9/74/50 
f 9/74/51 35/72/51 6/71/51 
f 9/74/52 36/75/52 35/72/52 
f 34/76/53 14/77/53 15/78/53 
f 15/78/54 37/79/54 34/76/54 
f 35/80/55 34/76/55 37/79/55 
f 10/39/56 28/38/56 33/81/56 
f 38/9/57 7/8/57 39/10/57 
f 38/9/58 40/11/58 7/8/58 
f 40/11/59 11/12/59 7/8/59 
f 13/13/60 41/17/60 1/16/60 
f 42/18/61 1/16/61 41/17/61 
f 22/28/62 19/21/62 21/25/62 
f 43/36/63 16/20/63 44/37/63 
f 19/21/64 44/37/64 16/20/64 
f 44/37/65 19/21/65 45/38/65 
f 22/28/66 45/38/66 19/21/66 
f 45/38/67 22/28/67 40/39/67 
f 11/29/68 40/39/68 22/28/68 
f 46/45/69 47/44/69 44/46/69 
f 43/47/70 44/46/70 47/44/70 
f 48/48/71 46/45/71 45/49/71 
f 44/46/72 45/49/72 46/45/72 
f 38/51/73 49/50/73 40/52/73 
f 50/53/74 40/52/74 49/50/74 
f 48/48/75 45/49/75 49/50/75 
f 50/54/76 49/50/76 45/49/76 
f 41/56/77 13/55/77 47/57/77 
f 25/58/78 47/57/78 13/55/78 
f 51/59/79 41/56/79 46/60/79 
f 47/57/80 46/60/80 41/56/80 
f 52/61/81 51/59/81 48/62/81 
f 46/60/82 48/62/82 51/59/82 
f 39/64/83 53/63/83 38/65/83 
f 49/66/84 38/65/84 53/63/84 
f 52/61/85 48/62/85 53/63/85 
f 49/66/86 53/63/86 48/62/86 
f 2/68/87 1/67/87 54/69/87 
f 42/70/88 54/69/88 1/67/88 
f 5/71/89 2/68/89 52/72/89 
f 54/69/90 52/72/90 2/68/90 
f 7/73/91 5/71/91 39/74/91 
f 52/72/92 39/74/92 5/71/92 
f 53/75/93 39/74/93 52/72/93 
f 41/77/94 51/76/94 42/78/94 
f 54/79/95 42/78/95 51/76/95 
f 51/76/96 52/80/96 54/79/96 
f 45/38/97 40/39/97 50/81/97 
f 47/41/98 25/40/98 43/42/98 
f 16/43/99 43/42/99 25/40/99 
# 0 polygons - 104 triangles

