# 3ds Max Wavefront OBJ Exporter v0.97b - (c)2007 guruware
# File Created: 21.02.2017 22:39:33

mtllib shuttleOne.mtl

#
# object Shuttle01
#

v  -24.8000 3.0301 380.9489
v  -56.8500 7.4000 135.1490
v  56.8400 7.4000 135.1490
v  24.8000 3.0301 380.9489
v  -59.3300 40.1600 -71.4010
v  59.3200 40.1600 -71.4010
v  0.0000 40.6700 -179.0510
v  107.8000 94.6500 -183.1510
v  103.9000 61.3803 -183.1510
v  65.3700 144.0099 -183.1510
v  0.0000 154.5600 -180.8510
v  24.8000 46.2901 372.8489
v  -24.8000 46.2901 372.8489
v  74.4000 52.3751 325.6490
v  67.6400 21.9601 333.7490
v  -25.4800 117.6100 266.9489
v  25.7300 117.9800 267.1490
v  56.8400 158.0600 129.2489
v  -56.8500 158.0600 129.2489
v  -36.5900 172.1800 106.7489
v  36.6800 172.1800 106.7489
v  38.2700 172.1800 -0.3645
v  -38.1800 172.1800 -0.3645
v  -59.3200 158.0600 -75.8910
v  59.3200 158.0600 -75.8910
v  34.3300 82.3101 306.3489
v  -34.7500 82.5000 306.4489
v  73.7500 116.8700 173.7489
v  95.8300 143.9800 124.0490
v  85.4100 143.6000 -53.5710
v  86.8300 87.5900 193.9490
v  134.2000 94.6500 124.0490
v  122.8000 94.6500 -53.5710
v  149.8000 104.5700 -79.8810
v  110.0000 153.5100 -79.8810
v  95.8300 61.3800 124.0490
v  112.3000 61.2029 -53.3610
v  138.6000 71.1180 -79.6710
v  95.8300 28.4400 131.8490
v  -107.8000 94.6500 -183.1510
v  -103.9000 61.3802 -183.1510
v  -65.3700 144.0099 -183.1510
v  -74.4000 52.3751 325.6490
v  -67.6400 21.9601 333.7490
v  -74.2000 117.0600 173.8490
v  -95.8300 143.9800 124.0490
v  -85.4100 143.6000 -53.5710
v  -134.2000 94.6500 124.0490
v  -86.5800 87.2200 193.7490
v  -122.8000 94.6500 -53.5710
v  -149.8000 104.5700 -79.8810
v  -110.0000 153.5100 -79.8810
v  -95.8300 61.3800 124.0490
v  -112.3000 61.2029 -53.3610
v  -138.6000 71.1180 -79.6710
v  -95.8300 28.4400 131.8490
# 56 vertices

vn 0.0000 -0.9998 -0.0178
vn 0.0000 -0.9877 -0.1566
vn 0.0000 -1.0000 -0.0047
vn -0.0404 0.0047 -0.9992
vn -0.0266 -0.0228 -0.9994
vn -0.0377 -0.0158 -0.9992
vn 0.0000 0.1840 0.9829
vn 0.6742 0.1359 0.7260
vn 0.7372 0.0161 0.6755
vn -0.0080 0.9607 0.2774
vn 0.0000 0.9595 0.2818
vn 0.0000 1.0000 -0.0000
vn 0.0000 0.9994 -0.0333
vn 0.0000 0.8793 0.4763
vn 0.0031 0.8781 0.4784
vn 0.0030 0.7399 0.6727
vn -0.0080 0.7483 0.6633
vn 0.0000 0.8470 0.5316
vn 0.0000 0.9830 -0.1838
vn 0.5741 0.8188 0.0069
vn 0.5673 0.8234 0.0084
vn 0.8844 0.1109 0.4534
vn 0.3592 0.8713 0.3343
vn 0.3370 0.9413 -0.0218
vn 0.4809 0.8767 0.0058
vn 0.5347 0.8412 -0.0800
vn 0.1541 0.9808 -0.1198
vn 0.7282 0.5787 0.3673
vn 0.7278 0.5791 0.3673
vn 0.6778 0.5272 0.5126
vn 0.5216 0.6300 0.5754
vn 0.7937 0.6062 -0.0509
vn 0.7884 0.6133 -0.0476
vn 0.7110 0.6112 -0.3479
vn 0.7220 0.5872 -0.3660
vn 0.5496 0.4198 0.7223
vn 0.5589 0.4545 0.6936
vn 0.1380 0.9535 0.2680
vn 0.7724 0.5055 0.3845
vn 0.6547 -0.7550 0.0359
vn 0.2639 0.9253 0.2723
vn 0.9505 -0.2978 0.0885
vn 0.6545 -0.7549 -0.0420
vn 0.9454 -0.1108 -0.3066
vn 0.8931 -0.3011 -0.3343
vn 0.7302 -0.2252 0.6451
vn 0.7213 -0.2374 0.6507
vn 0.4774 -0.8774 0.0466
vn 0.4328 -0.9009 0.0315
vn 0.4059 -0.9034 -0.1384
vn 0.4643 -0.8783 -0.1141
vn 0.1902 -0.9756 -0.1094
vn 0.3765 -0.9260 -0.0256
vn 0.3326 -0.9428 -0.0228
vn 0.9768 -0.1917 0.0953
vn 0.9897 0.0330 0.1392
vn 0.9955 0.0219 0.0924
vn -0.3239 0.9446 0.0531
vn 0.0404 0.0047 -0.9992
vn 0.0266 -0.0228 -0.9994
vn 0.0377 -0.0158 -0.9992
vn -0.6742 0.1359 0.7260
vn -0.7372 0.0161 0.6755
vn -0.5723 0.8200 0.0069
vn -0.5655 0.8247 0.0084
vn -0.8773 0.1428 0.4582
vn -0.3593 0.8701 0.3374
vn -0.3371 0.9412 -0.0218
vn -0.4810 0.8767 0.0058
vn -0.5347 0.8412 -0.0800
vn -0.1541 0.9808 -0.1198
vn -0.6754 0.5254 0.5175
vn -0.5526 0.6088 0.5691
vn -0.7937 0.6062 -0.0509
vn -0.7884 0.6133 -0.0476
vn -0.7110 0.6112 -0.3479
vn -0.7220 0.5872 -0.3660
vn -0.5496 0.4198 0.7223
vn -0.5589 0.4545 0.6936
vn -0.1347 0.9549 0.2647
vn -0.7869 0.4846 0.3822
vn -0.6547 -0.7550 0.0359
vn -0.2482 0.9307 0.2688
vn -0.9505 -0.2978 0.0885
vn -0.6545 -0.7549 -0.0420
vn -0.9454 -0.1108 -0.3066
vn -0.8931 -0.3011 -0.3343
vn -0.7302 -0.2252 0.6451
vn -0.7213 -0.2374 0.6507
vn -0.4775 -0.8774 0.0467
vn -0.4328 -0.9009 0.0315
vn -0.4060 -0.9033 -0.1384
vn -0.4644 -0.8783 -0.1141
vn -0.1902 -0.9756 -0.1094
vn -0.3766 -0.9260 -0.0256
vn -0.3326 -0.9428 -0.0228
vn -0.9768 -0.1917 0.0953
vn -0.9897 0.0330 0.1392
vn -0.9955 0.0219 0.0924
vn 0.3239 0.9446 0.0531
vn -0.7470 0.5545 0.3668
vn -0.7095 0.6011 0.3678
# 102 vertex normals

vt 0.9950 0.0886 0.0000
vt 0.9924 0.5168 0.0000
vt 0.8562 0.5168 0.0000
vt 0.8670 0.0886 0.0000
vt 0.9917 0.8330 0.0000
vt 0.8535 0.8330 0.0000
vt 0.9995 0.9921 0.0000
vt 0.3470 0.0951 0.0000
vt 0.3968 0.2698 0.0000
vt 0.3305 0.2511 0.0000
vt 0.5227 0.2289 0.0000
vt 0.5816 0.1400 0.0000
vt 0.2074 0.1025 0.0000
vt 0.1781 0.0184 0.0000
vt 0.2860 0.0005 0.0000
vt 0.3144 0.0819 0.0000
vt 0.2367 0.2187 0.0000
vt 0.3025 0.1909 0.0000
vt 0.0547 0.2877 0.0000
vt 0.2198 0.2877 0.0000
vt 0.2932 0.5271 0.0000
vt 0.0005 0.5271 0.0000
vt 0.0698 0.6047 0.0000
vt 0.2276 0.6047 0.0000
vt 0.2279 0.7447 0.0000
vt 0.0726 0.7447 0.0000
vt 0.0165 0.8408 0.0000
vt 0.2920 0.8408 0.0000
vt 0.1439 0.9952 0.0000
vt 0.0813 0.1028 0.0000
vt 0.2065 0.1028 0.0000
vt 0.2357 0.2183 0.0000
vt 0.0483 0.2183 0.0000
vt 0.0311 0.2140 0.0000
vt 0.2510 0.2140 0.0000
vt 0.3611 0.4492 0.0000
vt 0.4044 0.5362 0.0000
vt 0.3781 0.8019 0.0000
vt 0.3088 0.9992 0.0000
vt 0.4429 0.2599 0.0000
vt 0.4437 0.4773 0.0000
vt 0.3716 0.4861 0.0000
vt 0.3564 0.3360 0.0000
vt 0.5683 0.4268 0.0000
vt 0.5686 0.5363 0.0000
vt 0.4112 0.5363 0.0000
vt 0.4580 0.4451 0.0000
vt 0.5567 0.8021 0.0000
vt 0.3852 0.8021 0.0000
vt 0.5869 0.8479 0.0000
vt 0.5854 0.9994 0.0000
vt 0.4213 0.9994 0.0000
vt 0.4278 0.8479 0.0000
vt 0.6659 0.0975 0.0000
vt 0.6661 0.1809 0.0000
vt 0.5737 0.4255 0.0000
vt 0.5754 0.2220 0.0000
vt 0.6682 0.5353 0.0000
vt 0.5757 0.5355 0.0000
vt 0.6567 0.8018 0.0000
vt 0.5581 0.8022 0.0000
vt 0.6876 0.8476 0.0000
vt 0.6876 0.9995 0.0000
vt 0.5910 0.9995 0.0000
vt 0.5926 0.8480 0.0000
vt 0.8549 0.0886 0.0000
vt 0.8441 0.5168 0.0000
vt 0.7743 0.5225 0.0000
vt 0.7908 0.1708 0.0000
vt 0.8414 0.8330 0.0000
vt 0.7409 0.8015 0.0000
vt 0.9874 0.9921 0.0000
vt 0.7892 0.9992 0.0000
vt 0.7016 0.8474 0.0000
vt 0.6716 0.5338 0.0000
vt 0.6718 0.1855 0.0000
vt 0.7841 0.1713 0.0000
vt 0.7684 0.5230 0.0000
vt 0.6604 0.8020 0.0000
vt 0.4213 0.8477 0.0000
# 80 texture coords

g Shuttle01
usemtl VMtl01
s 1
f 1/1/1 2/2/1 3/3/1 
f 3/3/1 4/4/1 1/1/1 
f 2/2/2 5/5/2 6/6/2 
f 6/6/2 3/3/2 2/2/2 
f 7/7/3 6/6/3 5/5/3 
f 7/8/4 8/9/4 9/10/4 
f 10/11/5 8/9/5 7/8/5 
f 11/12/6 10/11/6 7/8/6 
f 12/13/7 13/14/7 1/15/7 
f 1/15/7 4/16/7 12/13/7 
f 14/17/8 12/13/8 4/16/8 
f 4/16/9 15/18/9 14/17/9 
f 16/19/10 17/20/10 18/21/10 
f 18/21/11 19/22/11 16/19/11 
f 20/23/12 21/24/12 22/25/12 
f 22/25/12 23/26/12 20/23/12 
f 24/27/13 25/28/13 11/29/13 
f 13/30/14 12/31/14 26/32/14 
f 26/32/15 27/33/15 13/30/15 
f 27/34/16 26/35/16 17/20/16 
f 17/20/17 16/19/17 27/34/17 
f 19/22/18 18/21/18 21/24/18 
f 21/24/18 20/23/18 19/22/18 
f 25/28/19 24/27/19 23/26/19 
f 23/26/19 22/25/19 25/28/19 
f 18/21/20 25/28/20 22/25/20 
f 22/25/21 21/24/21 18/21/21 
f 17/20/22 28/36/22 29/37/22 
f 29/37/23 18/21/23 17/20/23 
f 18/21/24 29/37/24 30/38/24 
f 30/38/25 25/28/25 18/21/25 
f 25/28/26 30/38/26 10/39/26 
f 10/39/27 11/29/27 25/28/27 
f 26/40/28 31/41/28 28/42/28 
f 28/42/29 17/43/29 26/40/29 
f 31/44/30 32/45/30 29/46/30 
f 29/46/31 28/47/31 31/44/31 
f 32/45/32 33/48/32 30/49/32 
f 30/49/33 29/46/33 32/45/33 
f 34/50/34 8/51/34 10/52/34 
f 10/52/35 35/53/35 34/50/35 
f 30/49/36 33/48/36 34/50/36 
f 34/50/37 35/53/37 30/49/37 
f 12/54/38 14/55/38 31/56/38 
f 31/56/39 26/57/39 12/54/39 
f 14/55/40 36/58/40 32/59/40 
f 32/59/41 31/56/41 14/55/41 
f 36/58/42 37/60/42 33/61/42 
f 33/61/43 32/59/43 36/58/43 
f 38/62/44 9/63/44 8/64/44 
f 8/64/45 34/65/45 38/62/45 
f 33/61/46 37/60/46 38/62/46 
f 38/62/47 34/65/47 33/61/47 
f 4/66/48 3/67/48 39/68/48 
f 39/68/49 15/69/49 4/66/49 
f 3/67/50 6/70/50 37/71/50 
f 37/71/51 39/68/51 3/67/51 
f 6/70/52 7/72/52 9/73/52 
f 9/73/53 37/71/53 6/70/53 
f 9/73/54 38/74/54 37/71/54 
f 36/75/55 14/76/55 15/77/55 
f 15/77/56 39/78/56 36/75/56 
f 37/79/57 36/75/57 39/78/57 
f 10/39/58 30/38/58 35/80/58 
f 40/9/59 7/8/59 41/10/59 
f 40/9/60 42/11/60 7/8/60 
f 42/11/61 11/12/61 7/8/61 
f 13/13/62 43/17/62 1/16/62 
f 44/18/63 1/16/63 43/17/63 
f 24/28/64 19/21/64 23/25/64 
f 20/24/65 23/25/65 19/21/65 
f 45/36/66 16/20/66 46/37/66 
f 19/21/67 46/37/67 16/20/67 
f 46/37/68 19/21/68 47/38/68 
f 24/28/69 47/38/69 19/21/69 
f 47/38/70 24/28/70 42/39/70 
f 11/29/71 42/39/71 24/28/71 
f 48/45/72 49/44/72 46/46/72 
f 45/47/73 46/46/73 49/44/73 
f 50/48/74 48/45/74 47/49/74 
f 46/46/75 47/49/75 48/45/75 
f 40/51/76 51/50/76 42/52/76 
f 52/53/77 42/52/77 51/50/77 
f 50/48/78 47/49/78 51/50/78 
f 52/53/79 51/50/79 47/49/79 
f 43/55/80 13/54/80 49/56/80 
f 27/57/81 49/56/81 13/54/81 
f 53/58/82 43/55/82 48/59/82 
f 49/56/83 48/59/83 43/55/83 
f 54/60/84 53/58/84 50/61/84 
f 48/59/85 50/61/85 53/58/85 
f 41/63/86 55/62/86 40/64/86 
f 51/65/87 40/64/87 55/62/87 
f 54/60/88 50/61/88 55/62/88 
f 51/65/89 55/62/89 50/61/89 
f 2/67/90 1/66/90 56/68/90 
f 44/69/91 56/68/91 1/66/91 
f 5/70/92 2/67/92 54/71/92 
f 56/68/93 54/71/93 2/67/93 
f 7/72/94 5/70/94 41/73/94 
f 54/71/95 41/73/95 5/70/95 
f 55/74/96 41/73/96 54/71/96 
f 43/76/97 53/75/97 44/77/97 
f 56/78/98 44/77/98 53/75/98 
f 53/75/99 54/79/99 56/78/99 
f 47/38/100 42/39/100 52/80/100 
f 49/41/101 27/40/101 45/42/101 
f 16/43/102 45/42/102 27/40/102 
# 0 polygons - 108 triangles

