# Blender v2.78 (sub 0) OBJ File: ''
# www.blender.org
mtllib vehicle_with_texture.mtl
o Cube.001_Cube.000
v 64.596283 103.994781 112.269882
v 64.596283 125.378685 112.269905
v 67.980804 125.378654 279.598846
v 67.980804 103.994751 279.598846
v -17.138208 79.291954 -147.690338
v -13.121226 83.181862 -251.105301
v 29.085451 83.457291 -251.301758
v 33.102436 79.567390 -147.886780
v -22.400305 79.291916 112.466324
v 38.364548 79.567352 112.269897
v 41.511562 113.251389 -250.579300
v 41.511562 97.370216 -250.579300
v 41.511562 97.370224 -264.197418
v 41.511562 113.251396 -264.197418
v -13.121226 82.733788 -264.001007
v 29.085451 83.009209 -264.197449
v 41.749077 114.492867 324.711700
v 41.749077 104.896584 324.711700
v -25.784840 114.217445 324.908112
v -25.784840 104.621162 324.908112
v 166.491547 56.064713 532.976562
v 193.657791 56.064713 532.976562
v 187.550018 65.463486 569.482666
v 170.262787 65.463486 569.482666
v 98.531494 119.095345 140.719223
v 81.846252 94.862129 -138.806473
v 59.334183 125.378723 -147.886780
v 155.247253 55.971092 -123.456505
v 155.021347 75.358482 -123.456497
v 167.663513 68.416046 -98.568123
v 168.344742 56.064816 -98.568123
v 247.620804 56.064739 374.133057
v 247.620804 79.669937 374.133057
v 233.624222 79.669914 532.976562
v 233.624222 56.064713 532.976562
v 206.912247 56.064777 142.966110
v 233.624222 56.064777 142.966110
v 220.908844 93.915131 374.133087
v 206.912247 93.915108 532.976562
v 181.451004 112.265472 374.133087
v 166.491547 112.265450 532.976562
v 193.657791 110.189110 532.976562
v 207.654373 110.189133 374.133087
v 170.833710 56.064777 142.966110
v 132.669769 55.959213 -138.089340
v 139.808563 55.924587 -137.529984
v 193.657791 56.064777 142.966110
v 132.669769 92.063194 -138.089340
v 139.808563 91.586609 -137.529984
v 212.982605 80.484634 569.482666
v 212.982605 65.463486 569.482666
v 181.451004 56.064739 374.133057
v 207.654373 56.064739 374.133057
v 170.833710 112.265511 142.966110
v 193.657791 110.189171 142.966110
v 206.912247 93.915169 142.966110
v 233.624222 79.669975 142.966110
v 220.908844 56.064739 374.133057
v 101.520767 89.692497 374.133057
v 101.520767 118.599068 374.133087
v 98.531494 90.739418 140.719223
v 83.624229 80.205963 532.976562
v 83.624229 118.599045 532.976562
v 206.912247 56.064713 532.976562
v 117.530197 80.825760 569.482666
v 81.846252 82.970589 -138.677597
v 195.984467 65.463486 569.482666
v 172.888229 71.382095 569.482666
v 171.406830 94.581100 569.482666
v 137.083435 97.204453 569.482666
v 137.083435 81.812889 569.482666
v 190.411133 71.382095 569.482666
v 187.741196 86.823845 569.482666
v 182.088165 93.764725 569.482666
v 184.356323 71.382095 569.482666
v 199.621490 71.382095 569.482666
v 199.621490 80.488205 569.482666
v 195.984467 89.549561 569.482666
v 117.530197 105.257172 569.482666
v 170.262787 101.226791 569.482666
v 187.550018 99.905518 569.482666
v 59.334183 103.994820 -147.886780
v -25.784824 79.291885 279.795258
v 41.749062 79.567322 279.598816
v 33.102436 140.219818 -147.813736
v 38.364548 146.053772 112.298470
v 41.749062 149.806076 279.598846
v -25.784824 149.530655 279.795288
v 29.085451 121.309486 -250.579300
v 29.085451 121.309494 -264.197418
v -48.632065 103.719360 112.466324
v -52.016556 103.719330 279.795288
v -52.016556 125.103226 279.795288
v -48.632065 125.103256 112.466331
v -25.547329 112.975960 -250.382843
v -25.547329 112.975967 -264.000977
v -25.547329 97.094803 -264.000977
v -25.547329 97.094795 -250.382843
v -150.527313 55.789288 533.172974
v -154.298523 65.188057 569.679077
v -171.585770 65.188057 569.679077
v -177.693542 55.789288 533.172974
v -85.247391 118.323677 143.162537
v -43.369965 125.103294 -147.690338
v -67.659996 92.176552 -137.892899
v -139.283020 55.695667 -123.260071
v -152.380508 55.789391 -98.371681
v -151.699310 68.140625 -98.371681
v -139.057098 75.083054 -123.260063
v -231.656586 55.789314 374.329498
v -217.659973 55.789288 533.172974
v -217.659973 79.394478 533.172974
v -231.656586 79.394501 374.329498
v -190.948029 55.789352 143.162537
v -217.659973 55.789352 143.162537
v -204.944611 93.639694 374.329498
v -190.948029 93.639671 533.172974
v -165.486786 111.990051 374.329529
v -191.690155 109.913712 374.329529
v -177.693542 109.913689 533.172974
v -150.527313 111.990028 533.172974
v -154.869492 55.789352 143.162537
v -177.693558 55.789352 143.162537
v -123.844315 55.649155 -137.333542
v -116.705544 55.683781 -137.892899
v -123.844315 91.311180 -137.333542
v -116.705544 91.787773 -137.892899
v -197.018372 65.188057 569.679077
v -197.018372 80.209206 569.679077
v -165.486786 55.789314 374.329498
v -191.690155 55.789314 374.329498
v -177.693558 109.913750 143.162537
v -154.869492 111.990089 143.162537
v -217.659973 79.394539 143.162537
v -190.948029 93.639732 143.162537
v -204.944611 55.789314 374.329498
v -85.556526 89.417076 374.329498
v -85.247391 89.417114 143.162537
v -85.556526 118.323639 374.329529
v -67.659988 79.930542 533.172974
v -67.659988 118.323616 533.172974
v -190.948029 55.789288 533.172974
v -101.565948 80.550323 569.679077
v -67.659996 81.034706 -137.753845
v -180.020233 65.188057 569.679077
v -156.923950 71.106667 569.679077
v -121.119171 81.537460 569.679077
v -121.119171 96.929031 569.679077
v -155.442581 94.305679 569.679077
v -174.446899 71.106667 569.679077
v -168.392044 71.106667 569.679077
v -166.123886 93.489296 569.679077
v -171.776947 86.548416 569.679077
v -183.657242 71.106667 569.679077
v -183.657242 80.212784 569.679077
v -180.020233 89.274139 569.679077
v -154.298523 100.951370 569.679077
v -101.565948 104.981750 569.679077
v -171.585770 99.630096 569.679077
v -43.369965 103.719398 -147.690338
v -17.138208 139.944397 -147.617310
v -22.400305 145.778351 112.494911
v -13.121226 121.034058 -250.382843
v -13.121226 121.034065 -264.000977
vt 0.2586 0.2976
vt 0.2514 0.2750
vt 0.2759 0.1906
vt 0.2846 0.1953
vt 0.3354 0.5349
vt 0.3260 0.6105
vt 0.3003 0.6116
vt 0.2911 0.5346
vt 0.3396 0.3006
vt 0.2864 0.2997
vt 0.6492 0.5046
vt 0.6554 0.5557
vt 0.6196 0.5466
vt 0.6212 0.5220
vt 0.5071 0.5950
vt 0.5272 0.5681
vt 0.5966 0.5689
vt 0.6152 0.6030
vt 0.2958 0.1766
vt 0.2978 0.1804
vt 0.3243 0.1737
vt 0.3227 0.1783
vt 0.7938 0.9299
vt 0.7174 0.9206
vt 0.7473 0.8378
vt 0.7826 0.8381
vt 0.2954 0.8809
vt 0.0846 0.8778
vt 0.0784 0.8492
vt 0.2734 0.8556
vt 0.1857 0.4900
vt 0.1775 0.5022
vt 0.1664 0.4804
vt 0.1745 0.4751
vt 0.0463 0.1526
vt 0.0302 0.1578
vt 0.0001 0.0481
vt 0.0164 0.0436
vt 0.1247 0.3041
vt 0.1053 0.3082
vt 0.4706 0.9772
vt 0.5897 0.9682
vt 0.5897 0.9907
vt 0.4706 0.9999
vt 0.4706 0.9419
vt 0.5896 0.9319
vt 0.5894 0.9523
vt 0.4706 0.9616
vt 0.1521 0.2981
vt 0.2013 0.4966
vt 0.1963 0.4962
vt 0.1345 0.3020
vt 0.1974 0.5218
vt 0.1917 0.5206
vt 0.6164 0.8710
vt 0.6098 0.8022
vt 0.7018 0.8062
vt 0.7002 0.8309
vt 0.0914 0.1369
vt 0.0735 0.1432
vt 0.0866 0.9159
vt 0.2982 0.9351
vt 0.2986 0.9522
vt 0.0873 0.9212
vt 0.0966 0.9388
vt 0.2979 0.9679
vt 0.2978 0.9905
vt 0.1147 0.9502
vt 0.0645 0.1463
vt 0.0892 0.3146
vt 0.1499 0.1156
vt 0.1691 0.1095
vt 0.2336 0.2698
vt 0.2200 0.2812
vt 0.1167 0.0062
vt 0.1424 0.0001
vt 0.0343 0.0370
vt 0.0612 0.0271
vt 0.0431 0.0338
vt 0.9926 0.8341
vt 0.8803 0.8124
vt 0.4707 0.8818
vt 0.2397 0.5134
vt 0.2389 0.5226
vt 0.5902 0.8694
vt 0.6842 0.9122
vt 0.7298 0.8358
vt 0.7778 0.8263
vt 0.7825 0.7795
vt 0.8487 0.7804
vt 0.8463 0.8087
vt 0.7423 0.8249
vt 0.7491 0.7939
vt 0.7611 0.7806
vt 0.7546 0.8256
vt 0.7241 0.8233
vt 0.7250 0.8060
vt 0.6625 0.7289
vt 0.7321 0.7875
vt 0.7866 0.6708
vt 0.9926 0.7235
vt 0.8851 0.7688
vt 0.7854 0.7662
vt 0.7088 0.6905
vt 0.7509 0.7684
vt 0.2593 0.5374
vt 0.2480 0.5539
vt 0.3237 0.1979
vt 0.2979 0.1994
vt 0.0795 0.8267
vt 0.2734 0.8306
vt 0.3871 0.8291
vt 0.4280 0.8327
vt 0.3921 0.8536
vt 0.3885 0.7858
vt 0.4275 0.7816
vt 0.6143 0.4776
vt 0.6016 0.5073
vt 0.2876 0.6128
vt 0.0013 0.8244
vt 0.0002 0.8356
vt 0.2794 0.6155
vt 0.3680 0.2977
vt 0.3376 0.1929
vt 0.3466 0.1873
vt 0.3751 0.2751
vt 0.4838 0.5025
vt 0.5083 0.5200
vt 0.5078 0.5440
vt 0.4742 0.5491
vt 0.7825 0.5096
vt 0.7926 0.4176
vt 0.8278 0.4168
vt 0.8588 0.4993
vt 0.2971 0.7325
vt 0.2734 0.7599
vt 0.0785 0.7669
vt 0.0851 0.7360
vt 0.4407 0.4895
vt 0.4518 0.4746
vt 0.4599 0.4799
vt 0.4488 0.5017
vt 0.5794 0.1522
vt 0.6089 0.0430
vt 0.6251 0.0474
vt 0.5955 0.1573
vt 0.5015 0.3039
vt 0.5208 0.3080
vt 0.4707 0.6384
vt 0.4708 0.6158
vt 0.5898 0.6250
vt 0.5898 0.6476
vt 0.4707 0.6738
vt 0.4707 0.6540
vt 0.5895 0.6635
vt 0.5897 0.6839
vt 0.4741 0.2980
vt 0.4917 0.3018
vt 0.4300 0.4957
vt 0.4251 0.4960
vt 0.4347 0.5200
vt 0.4290 0.5213
vt 0.9592 0.4483
vt 0.8749 0.4094
vt 0.8729 0.3847
vt 0.9649 0.3794
vt 0.5342 0.1366
vt 0.5521 0.1428
vt 0.0867 0.6993
vt 0.0874 0.6940
vt 0.2987 0.6632
vt 0.2983 0.6803
vt 0.0967 0.6764
vt 0.1148 0.6651
vt 0.2979 0.6250
vt 0.2980 0.6475
vt 0.5611 0.1459
vt 0.5370 0.3143
vt 0.4757 0.1156
vt 0.4095 0.2802
vt 0.3952 0.2687
vt 0.4565 0.1096
vt 0.5083 0.0061
vt 0.4825 0.0001
vt 0.5909 0.0365
vt 0.5640 0.0267
vt 0.5821 0.0333
vt 0.5825 0.4163
vt 0.6945 0.3931
vt 0.4707 0.7338
vt 0.3881 0.5116
vt 0.3888 0.5204
vt 0.5902 0.7463
vt 0.8919 0.4904
vt 0.8453 0.4146
vt 0.7972 0.4057
vt 0.7284 0.3890
vt 0.7257 0.3608
vt 0.7919 0.3590
vt 0.8327 0.4039
vt 0.8204 0.4048
vt 0.8133 0.3598
vt 0.8255 0.3730
vt 0.8508 0.4021
vt 0.8497 0.3848
vt 0.8423 0.3664
vt 0.9112 0.3068
vt 0.7864 0.2504
vt 0.7888 0.3457
vt 0.6891 0.3496
vt 0.5811 0.3057
vt 0.8644 0.2690
vt 0.8233 0.3475
vt 0.3779 0.5543
vt 0.3671 0.5377
vt 0.0797 0.7894
vt 0.2734 0.7850
vt 0.3932 0.7617
vt 0.5173 0.4797
vt 0.5290 0.5064
vt 0.3385 0.6117
vt 0.0012 0.7921
vt 0.0001 0.7808
vt 0.3465 0.6145
vn 0.9998 -0.0000 -0.0202
vn 0.0058 -0.9993 -0.0376
vn 0.0046 -1.0000 -0.0000
vn 0.0050 -1.0000 -0.0000
vn 1.0000 0.0000 0.0000
vn 0.0067 -0.9994 0.0347
vn 0.7509 -0.6603 0.0112
vn 0.8645 0.0000 0.5027
vn 0.0029 0.0000 1.0000
vn 0.0000 -0.9684 0.2493
vn 0.5728 0.8175 -0.0600
vn 0.8894 0.0254 -0.4564
vn 0.9961 0.0000 0.0878
vn 0.0011 -1.0000 -0.0001
vn 0.0021 -1.0000 -0.0001
vn 0.0026 -1.0000 -0.0004
vn 0.0025 -1.0000 -0.0003
vn 0.4702 0.8816 0.0414
vn 0.0809 0.9967 0.0014
vn 0.0776 0.9970 0.0071
vn 0.0810 0.9967 0.0012
vn -0.0006 -1.0000 0.0003
vn -0.0012 -1.0000 0.0006
vn 0.0010 -1.0000 0.0002
vn 0.0002 -1.0000 0.0002
vn 0.0781 0.0000 -0.9969
vn 0.8705 0.0000 0.4922
vn 0.0000 -1.0000 -0.0000
vn 0.0856 0.9929 -0.0827
vn 0.0798 0.9931 -0.0860
vn 0.0861 0.9928 -0.0827
vn 0.5505 0.8162 -0.1756
vn 0.9648 0.0183 -0.2625
vn -0.9999 0.0000 0.0128
vn -0.9937 0.0000 -0.1120
vn 0.0844 0.9964 -0.0045
vn 0.4704 0.8820 -0.0285
vn 0.9982 0.0000 -0.0604
vn 0.7745 0.6308 -0.0469
vn 0.7779 0.5986 -0.1911
vn -0.2696 -0.9255 0.2661
vn 0.7736 0.6300 0.0682
vn 0.6772 0.0028 -0.7358
vn 0.0862 0.9963 -0.0015
vn 0.0860 0.9963 -0.0014
vn 0.0819 0.9966 0.0032
vn -0.3338 -0.9406 -0.0626
vn 0.0797 0.9931 -0.0865
vn -0.4095 -0.9123 0.0099
vn 0.0121 -0.0027 -0.9999
vn -0.4483 -0.8921 0.0564
vn 0.0776 0.9970 0.0080
vn 0.0000 0.0000 1.0000
vn 0.4569 0.8567 0.2392
vn 0.0731 0.9567 0.2817
vn 0.7411 0.6036 0.2940
vn -0.7327 0.0000 0.6805
vn 0.3728 -0.0036 -0.9279
vn 0.0043 -1.0000 -0.0000
vn -0.6424 -0.0000 0.7663
vn 0.5604 0.8279 -0.0206
vn 0.6814 -0.7318 -0.0138
vn 0.6304 -0.6769 0.3801
vn 0.0050 -0.8720 0.4896
vn 0.5913 0.6350 0.4971
vn -0.0014 0.7874 0.6164
vn 0.5441 0.8390 0.0000
vn 0.6517 0.7581 -0.0217
vn 0.7033 -0.7079 -0.0651
vn -0.5352 -0.8440 0.0339
vn 0.5010 0.8463 -0.1811
vn 0.9853 0.0000 -0.1710
vn -0.9998 0.0000 -0.0202
vn -1.0000 0.0000 0.0000
vn -0.7509 -0.6603 0.0112
vn -0.8645 0.0000 0.5027
vn -0.5744 0.8161 -0.0637
vn -0.8894 0.0254 -0.4564
vn -0.9961 0.0000 0.0878
vn -0.0011 -1.0000 -0.0001
vn -0.0025 -1.0000 -0.0003
vn -0.0026 -1.0000 -0.0004
vn -0.0023 -1.0000 -0.0002
vn -0.4702 0.8816 0.0414
vn -0.0776 0.9970 0.0075
vn -0.0776 0.9970 0.0071
vn -0.0776 0.9970 0.0076
vn 0.0006 -1.0000 0.0003
vn -0.0002 -1.0000 0.0002
vn -0.0010 -1.0000 0.0002
vn 0.0012 -1.0000 0.0006
vn -0.0781 0.0000 -0.9969
vn -0.8705 0.0000 0.4922
vn -0.0861 0.9928 -0.0827
vn -0.5505 0.8162 -0.1756
vn -0.9648 0.0183 -0.2625
vn 1.0000 0.0000 0.0013
vn 0.9937 0.0000 -0.1120
vn -0.0844 0.9964 -0.0032
vn -0.0844 0.9964 -0.0045
vn -0.0844 0.9964 -0.0033
vn -0.4704 0.8820 -0.0285
vn -0.9982 0.0000 -0.0604
vn -0.7745 0.6308 -0.0469
vn -0.7779 0.5986 -0.1911
vn 0.2696 -0.9255 0.2661
vn -0.7736 0.6300 0.0682
vn -0.6772 0.0028 -0.7358
vn -0.0844 0.9964 -0.0020
vn 0.3338 -0.9406 -0.0626
vn -0.0563 0.9946 -0.0876
vn 0.4101 -0.9120 0.0097
vn 0.0022 -0.0029 -1.0000
vn 0.4443 -0.8940 0.0576
vn -0.0776 0.9970 0.0080
vn -0.4569 0.8567 0.2392
vn -0.0731 0.9567 0.2817
vn -0.7411 0.6036 0.2940
vn 0.7327 0.0000 0.6805
vn -0.3724 -0.0040 -0.9280
vn 0.6424 -0.0000 0.7663
vn -0.5604 0.8279 -0.0206
vn -0.6814 -0.7318 -0.0138
vn -0.6304 -0.6769 0.3801
vn -0.5913 0.6350 0.4971
vn -0.5441 0.8390 0.0000
vn -0.6517 0.7581 -0.0217
vn -0.7033 -0.7079 -0.0651
vn 0.5360 -0.8434 0.0357
vn -0.5010 0.8463 -0.1811
vn -0.9853 0.0000 -0.1710
vn -0.0047 0.9997 -0.0224
vn -0.0044 0.9997 -0.0224
vn -0.0050 0.9997 -0.0224
vn -0.0066 0.9835 -0.1810
vn -0.0065 1.0000 0.0000
vn 0.0000 0.0000 -1.0000
vn -0.0007 0.0000 -1.0000
vn -0.0005 0.0000 -1.0000
usemtl Material.002
s 1
f 1/1/1 2/2/1 3/3/1 4/4/1
f 5/5/2 6/6/2 7/7/2 8/8/2
f 9/9/3 5/5/4 8/8/4 10/10/3
f 11/11/5 12/12/5 13/13/5 14/14/5
f 6/15/6 15/16/6 16/17/6 7/18/6
f 12/12/7 7/18/7 16/17/7 13/13/7
f 4/4/8 3/3/8 17/19/8 18/20/8
f 17/19/9 19/21/9 20/22/9 18/20/9
f 21/23/10 22/24/10 23/25/10 24/26/10
f 25/27/11 26/28/11 27/29/11 2/30/11
f 28/31/12 29/32/12 30/33/12 31/34/12
f 32/35/13 33/36/13 34/37/13 35/38/13
f 36/39/14 28/31/15 31/34/16 37/40/17
f 38/41/18 39/42/18 34/43/18 33/44/18
f 40/45/19 41/46/20 42/47/20 43/48/21
f 44/49/22 45/50/23 46/51/24 47/52/25
f 45/50/26 48/53/26 49/54/26 46/51/26
f 35/55/27 34/56/27 50/57/27 51/58/27
f 52/59/28 44/49/22 47/52/25 53/60/28
f 48/61/29 54/62/30 55/63/31 49/64/31
f 29/65/32 56/66/32 57/67/32 30/68/32
f 58/69/28 36/39/14 37/40/17 32/35/28
f 31/34/33 30/33/33 57/70/33 37/40/33
f 59/71/34 60/72/34 25/73/34 61/74/34
f 62/75/35 63/76/35 60/72/35 59/71/35
f 64/77/28 58/69/28 32/35/28 35/38/28
f 21/78/28 52/59/28 53/60/28 22/79/28
f 54/62/36 40/45/19 43/48/21 55/63/36
f 56/66/37 38/41/37 33/44/37 57/67/37
f 37/40/38 57/70/38 33/36/38 32/35/38
f 55/63/39 43/48/39 38/41/39 56/66/39
f 22/79/28 53/60/28 58/69/28 64/77/28
f 53/60/28 47/52/25 36/39/14 58/69/28
f 49/64/40 55/63/40 56/66/40 29/65/40
f 62/80/41 21/23/41 24/26/41 65/81/41
f 43/48/42 42/47/42 39/42/42 38/41/42
f 47/52/25 46/51/24 28/31/15 36/39/14
f 46/51/43 49/54/43 29/32/43 28/31/43
f 25/27/44 60/82/45 40/45/46 54/62/44
f 62/75/47 59/71/47 52/59/47 21/78/47
f 26/28/48 25/27/48 54/62/30 48/61/29
f 59/71/49 61/74/49 44/49/49 52/59/49
f 66/83/50 26/84/50 48/53/50 45/50/50
f 61/74/51 66/83/51 45/50/51 44/49/51
f 60/82/45 63/85/52 41/46/52 40/45/46
f 64/86/10 35/55/10 51/58/10 67/87/10
f 68/88/53 69/89/53 70/90/53 71/91/53
f 72/92/53 73/93/53 74/94/53 75/95/53
f 76/96/53 77/97/53 73/93/53 72/92/53
f 75/95/53 74/94/53 69/89/53 68/88/53
f 34/56/54 39/98/54 78/99/54 50/57/54
f 41/100/55 63/101/55 79/102/55 80/103/55
f 42/104/55 41/100/55 80/103/55 81/105/55
f 39/98/56 42/104/56 81/105/56 78/99/56
f 63/101/57 62/80/57 65/81/57 79/102/57
f 22/24/10 64/86/10 67/87/10 23/25/10
f 76/96/53 72/92/53 67/87/53 51/58/53
f 77/97/53 76/96/53 51/58/53 50/57/53
f 70/90/53 69/89/53 80/103/53 79/102/53
f 71/91/53 70/90/53 79/102/53 65/81/53
f 75/95/53 68/88/53 24/26/53 23/25/53
f 74/94/53 73/93/53 78/99/53 81/105/53
f 72/92/53 75/95/53 23/25/53 67/87/53
f 73/93/53 77/97/53 50/57/53 78/99/53
f 69/89/53 74/94/53 81/105/53 80/103/53
f 68/88/53 71/91/53 65/81/53 24/26/53
f 66/83/58 82/106/58 27/107/58 26/84/58
f 83/108/59 9/9/3 10/10/3 84/109/59
f 25/73/60 2/2/60 1/1/60 61/74/60
f 85/110/61 86/111/61 2/30/61 27/29/61
f 84/109/62 10/10/62 1/1/62 4/4/62
f 84/109/63 4/4/63 18/20/63
f 83/108/64 84/109/64 18/20/64 20/22/64
f 87/112/65 17/113/65 3/114/65
f 17/113/66 87/112/66 88/115/66 19/116/66
f 10/10/62 8/8/62 82/106/62 1/1/62
f 89/117/67 11/11/67 14/14/67 90/118/67
f 86/111/68 87/112/68 3/114/68 2/30/68
f 8/8/69 7/7/69 12/119/69 82/106/69
f 1/1/70 82/106/70 66/83/70 61/74/70
f 89/120/71 85/110/71 27/29/71 11/121/71
f 12/119/72 11/122/72 27/107/72 82/106/72
f 91/123/73 92/124/73 93/125/73 94/126/73
f 95/127/74 96/128/74 97/129/74 98/130/74
f 98/130/75 97/129/75 15/16/75 6/15/75
f 92/124/76 20/22/76 19/21/76 93/125/76
f 99/131/10 100/132/10 101/133/10 102/134/10
f 103/135/77 94/136/77 104/137/77 105/138/77
f 106/139/78 107/140/78 108/141/78 109/142/78
f 110/143/79 111/144/79 112/145/79 113/146/79
f 114/147/80 115/148/81 107/140/82 106/139/83
f 116/149/84 113/150/84 112/151/84 117/152/84
f 118/153/85 119/154/86 120/155/86 121/156/87
f 122/157/88 123/158/89 124/159/90 125/160/91
f 125/160/92 124/159/92 126/161/92 127/162/92
f 111/163/93 128/164/93 129/165/93 112/166/93
f 130/167/28 131/168/28 123/158/89 122/157/88
f 127/169/94 126/170/94 132/171/94 133/172/94
f 109/173/95 108/174/95 134/175/95 135/176/95
f 136/177/28 110/143/28 115/148/81 114/147/80
f 107/140/96 115/148/96 134/178/96 108/141/96
f 137/179/97 138/180/97 103/181/97 139/182/97
f 140/183/98 137/179/98 139/182/98 141/184/98
f 142/185/28 111/144/28 110/143/28 136/177/28
f 99/186/28 102/187/28 131/168/28 130/167/28
f 133/172/99 132/171/100 119/154/100 118/153/101
f 135/176/102 134/175/102 113/150/102 116/149/102
f 115/148/103 110/143/103 113/146/103 134/178/103
f 132/171/104 135/176/104 116/149/104 119/154/104
f 102/187/28 142/185/28 136/177/28 131/168/28
f 131/168/28 136/177/28 114/147/80 123/158/89
f 126/170/105 109/173/105 135/176/105 132/171/105
f 140/188/106 143/189/106 100/132/106 99/131/106
f 119/154/107 116/149/107 117/152/107 120/155/107
f 123/158/89 114/147/80 106/139/83 124/159/90
f 124/159/108 106/139/108 109/142/108 126/161/108
f 103/135/109 133/172/99 118/153/101 139/190/109
f 140/183/110 99/186/110 130/167/110 137/179/110
f 105/138/111 127/169/111 133/172/111 103/135/111
f 137/179/112 130/167/112 122/157/112 138/180/112
f 144/191/113 125/160/113 127/162/113 105/192/113
f 138/180/114 122/157/114 125/160/114 144/191/114
f 139/190/115 118/153/85 121/156/87 141/193/115
f 142/194/10 145/195/10 128/164/10 111/163/10
f 146/196/53 147/197/53 148/198/53 149/199/53
f 150/200/53 151/201/53 152/202/53 153/203/53
f 154/204/53 150/200/53 153/203/53 155/205/53
f 151/201/53 146/196/53 149/199/53 152/202/53
f 112/166/116 129/165/116 156/206/116 117/207/116
f 121/208/117 157/209/117 158/210/117 141/211/117
f 120/212/117 159/213/117 157/209/117 121/208/117
f 117/207/118 156/206/118 159/213/118 120/212/118
f 141/211/119 158/210/119 143/189/119 140/188/119
f 102/134/10 101/133/10 145/195/10 142/194/10
f 154/204/53 128/164/53 145/195/53 150/200/53
f 155/205/53 129/165/53 128/164/53 154/204/53
f 148/198/53 158/210/53 157/209/53 149/199/53
f 147/197/53 143/189/53 158/210/53 148/198/53
f 151/201/53 101/133/53 100/132/53 146/196/53
f 152/202/53 159/213/53 156/206/53 153/203/53
f 150/200/53 145/195/53 101/133/53 151/201/53
f 153/203/53 156/206/53 129/165/53 155/205/53
f 149/199/53 157/209/53 159/213/53 152/202/53
f 146/196/53 100/132/53 143/189/53 147/197/53
f 144/191/120 105/192/120 104/214/120 160/215/120
f 103/181/121 138/180/121 91/123/121 94/126/121
f 161/216/122 104/137/122 94/136/122 162/217/122
f 83/108/123 92/124/123 91/123/123 9/9/123
f 83/108/124 20/22/124 92/124/124
f 88/115/125 93/218/125 19/116/125
f 9/9/123 91/123/123 160/215/123 5/5/123
f 163/219/126 164/220/126 96/128/126 95/127/126
f 162/217/127 94/136/127 93/218/127 88/115/127
f 5/5/128 160/215/128 98/221/128 6/6/128
f 91/123/129 138/180/129 144/191/129 160/215/129
f 163/222/130 95/223/130 104/137/130 161/216/130
f 98/221/131 160/215/131 104/214/131 95/224/131
f 86/111/132 162/217/132 88/115/133 87/112/133
f 85/110/134 161/216/134 162/217/132 86/111/132
f 89/120/135 163/222/135 161/216/135 85/110/135
f 89/117/136 90/118/136 164/220/136 163/219/136
f 13/13/137 16/17/138 90/118/139 14/14/137
f 164/220/139 90/118/139 16/17/138 15/16/138
f 97/129/137 96/128/137 164/220/139 15/16/138
