# Blender v2.78 (sub 0) OBJ File: 'cone.blend'
# www.blender.org
mtllib cone.mtl
v 0.000000 -1.000000 -1.000000
v 0.382683 -1.000000 -0.923880
v 0.707107 -1.000000 -0.707107
v 0.923880 -1.000000 -0.382683
v 1.000000 -1.000000 0.000000
v 0.000000 1.000000 0.000000
v 0.923880 -1.000000 0.382684
v 0.707107 -1.000000 0.707107
v 0.382683 -1.000000 0.923880
v 0.000000 -1.000000 1.000000
v -0.382683 -1.000000 0.923880
v -0.707107 -1.000000 0.707107
v -0.923880 -1.000000 0.382684
v -1.000000 -1.000000 -0.000000
v -0.923879 -1.000000 -0.382684
v -0.707107 -1.000000 -0.707107
v -0.382683 -1.000000 -0.923880
v 0.000000 -1.000000 -0.000000
vt 0.6897 0.7610
vt 0.6155 0.3879
vt 0.8269 0.7042
vt 0.9318 0.5992
vt 0.9886 0.4621
vt 0.9886 0.3137
vt 0.9318 0.1766
vt 0.8269 0.0716
vt 0.6897 0.0148
vt 0.5413 0.0148
vt 0.4042 0.0716
vt 0.2992 0.1766
vt 0.2424 0.3137
vt 0.2424 0.4621
vt 0.2992 0.5992
vt 0.4042 0.7042
vt 0.5413 0.7610
vt 0.1598 0.6012
vt 0.1995 0.8005
vt 0.0865 0.6315
vt 0.0305 0.6876
vt 0.0001 0.7609
vt 0.0865 0.9695
vt 0.1598 0.9999
vt 0.3988 0.7609
vt 0.3988 0.8402
vt 0.2391 0.9999
vt 0.3124 0.9695
vt 0.2391 0.6012
vt 0.0001 0.8402
vt 0.0305 0.9135
vt 0.3685 0.6876
vt 0.3124 0.6315
vt 0.3685 0.9135
vn 0.1752 0.4403 -0.8806
vn 0.4988 0.4403 -0.7465
vn 0.7465 0.4403 -0.4988
vn 0.8806 0.4403 -0.1752
vn 0.8806 0.4403 0.1752
vn 0.7465 0.4403 0.4988
vn 0.4988 0.4403 0.7465
vn 0.1752 0.4403 0.8806
vn -0.1752 0.4403 0.8806
vn -0.4988 0.4403 0.7465
vn -0.7465 0.4403 0.4988
vn -0.8806 0.4403 0.1752
vn -0.8806 0.4403 -0.1752
vn -0.7465 0.4403 -0.4988
vn -0.4988 0.4403 -0.7465
vn -0.1752 0.4403 -0.8806
vn 0.0000 -1.0000 0.0000
usemtl coneTestTexture
s off
f 1/1/1 6/2/1 2/3/1
f 2/3/2 6/2/2 3/4/2
f 3/4/3 6/2/3 4/5/3
f 4/5/4 6/2/4 5/6/4
f 5/6/5 6/2/5 7/7/5
f 7/7/6 6/2/6 8/8/6
f 8/8/7 6/2/7 9/9/7
f 9/9/8 6/2/8 10/10/8
f 10/10/9 6/2/9 11/11/9
f 11/11/10 6/2/10 12/12/10
f 12/12/11 6/2/11 13/13/11
f 13/13/12 6/2/12 14/14/12
f 14/14/13 6/2/13 15/15/13
f 15/15/14 6/2/14 16/16/14
f 16/16/15 6/2/15 17/17/15
f 17/17/16 6/2/16 1/1/16
f 1/18/17 18/19/17 17/20/17
f 16/21/17 18/19/17 15/22/17
f 12/23/17 18/19/17 11/24/17
f 18/19/17 5/25/17 7/26/17
f 10/27/17 18/19/17 9/28/17
f 18/19/17 1/18/17 2/29/17
f 14/30/17 18/19/17 13/31/17
f 5/25/17 18/19/17 4/32/17
f 13/31/17 18/19/17 12/23/17
f 4/32/17 18/19/17 3/33/17
f 2/29/17 3/33/17 18/19/17
f 11/24/17 18/19/17 10/27/17
f 15/22/17 18/19/17 14/30/17
f 7/26/17 8/34/17 18/19/17
f 17/20/17 18/19/17 16/21/17
f 9/28/17 18/19/17 8/34/17
